<svg xmlns="http://www.w3.org/2000/svg" xmlns:xlink="http://www.w3.org/1999/xlink" width="64" zoomAndPan="magnify" viewBox="0 0 48 48" height="64" preserveAspectRatio="xMidYMid meet" version="1.0"><defs><clipPath id="5d93e375d6"><path d="M 12 36 L 21 36 L 21 45.121094 L 12 45.121094 Z M 12 36 " clip-rule="nonzero"/></clipPath><clipPath id="9de2646907"><path d="M 17 2.511719 L 33 2.511719 L 33 10 L 17 10 Z M 17 2.511719 " clip-rule="nonzero"/></clipPath><clipPath id="9d96358280"><path d="M 25 36 L 32 36 L 32 45.121094 L 25 45.121094 Z M 25 36 " clip-rule="nonzero"/></clipPath><clipPath id="354542ceb2"><path d="M 11.25 12 L 25 12 L 25 27 L 11.25 27 Z M 11.25 12 " clip-rule="nonzero"/></clipPath><clipPath id="40d60acc42"><path d="M 29 19 L 34.027344 19 L 34.027344 24 L 29 24 Z M 29 19 " clip-rule="nonzero"/></clipPath></defs><path fill="#000000" d="M 19.042969 34.179688 C 18.449219 34.214844 18.078125 34.289062 18.066406 34.289062 C 18.066406 34.347656 18.0625 34.402344 18.066406 34.457031 L 18.09375 35.082031 L 17.136719 36.324219 C 18.371094 36.496094 20.109375 37.84375 20.621094 38.871094 C 20.640625 38.902344 20.65625 38.9375 20.667969 38.96875 L 22.109375 37.097656 C 22.421875 36.691406 22.582031 36.1875 22.558594 35.675781 L 22.511719 34.605469 C 22.46875 34.597656 22.421875 34.589844 22.378906 34.574219 C 21.085938 34.167969 19.851562 34.136719 19.042969 34.179688 Z M 19.042969 34.179688 " fill-opacity="1" fill-rule="nonzero"/><g clip-path="url(#5d93e375d6)"><path fill="#000000" d="M 16.332031 36.9375 L 13.117188 41.113281 C 12.289062 42.191406 12.5 43.726562 13.59375 44.546875 C 14.042969 44.882812 14.570312 45.046875 15.09375 45.046875 C 15.84375 45.046875 16.582031 44.710938 17.070312 44.078125 L 20.285156 39.902344 C 21.113281 38.824219 17.160156 35.859375 16.332031 36.9375 Z M 17.484375 42.394531 C 17.421875 42.476562 17.300781 42.492188 17.21875 42.429688 L 16.636719 41.992188 C 16.554688 41.933594 16.539062 41.816406 16.601562 41.734375 C 16.664062 41.652344 16.78125 41.636719 16.863281 41.699219 L 17.445312 42.132812 C 17.53125 42.195312 17.546875 42.3125 17.484375 42.394531 Z M 18.074219 41.644531 C 18.011719 41.726562 17.894531 41.742188 17.8125 41.679688 L 17.226562 41.246094 C 17.144531 41.183594 17.128906 41.066406 17.191406 40.984375 C 17.253906 40.902344 17.375 40.886719 17.457031 40.949219 L 18.039062 41.386719 C 18.121094 41.445312 18.136719 41.566406 18.074219 41.644531 Z M 18.640625 40.953125 C 18.578125 41.035156 18.457031 41.050781 18.375 40.992188 L 17.792969 40.554688 C 17.710938 40.492188 17.695312 40.375 17.757812 40.292969 C 17.820312 40.210938 17.9375 40.195312 18.019531 40.257812 L 18.605469 40.695312 C 18.6875 40.757812 18.703125 40.875 18.640625 40.953125 Z M 18.640625 40.953125 " fill-opacity="1" fill-rule="nonzero"/></g><g clip-path="url(#9de2646907)"><path fill="#000000" d="M 17.0625 8.5625 C 17.179688 9.066406 18.699219 9.191406 20.898438 8.972656 C 21.003906 7.785156 22.835938 6.847656 24.765625 6.417969 C 26.695312 5.988281 28.753906 6.058594 29.363281 7.085938 C 31.449219 6.355469 32.765625 5.59375 32.652344 5.089844 C 32.519531 4.519531 30.589844 4.433594 27.90625 4.789062 L 27.582031 3.773438 C 27.398438 3.203125 26.902344 2.789062 26.304688 2.707031 C 25.6875 2.617188 24.808594 2.59375 23.738281 2.832031 C 22.667969 3.070312 21.886719 3.464844 21.367188 3.804688 C 20.863281 4.136719 20.59375 4.71875 20.679688 5.308594 L 20.832031 6.402344 C 18.472656 7.183594 16.941406 8.019531 17.0625 8.5625 Z M 17.0625 8.5625 " fill-opacity="1" fill-rule="nonzero"/></g><path fill="#000000" d="M 21.324219 9.269531 C 21.808594 11.394531 23.945312 12.726562 26.097656 12.246094 C 28.246094 11.765625 29.597656 9.660156 29.109375 7.535156 C 28.625 5.414062 20.839844 7.148438 21.324219 9.269531 Z M 21.324219 9.269531 " fill-opacity="1" fill-rule="nonzero"/><path fill="#000000" d="M 17.980469 33.898438 C 18 33.894531 20.15625 33.453125 22.503906 34.191406 C 22.578125 34.214844 22.652344 34.222656 22.726562 34.21875 C 22.785156 34.21875 22.84375 34.203125 22.894531 34.1875 C 22.636719 33.953125 22.519531 33.609375 22.574219 33.28125 L 17.761719 28.335938 C 17.59375 28.160156 17.453125 27.96875 17.332031 27.761719 L 17.585938 32.746094 C 17.351562 32.851562 17.210938 33.097656 17.234375 33.355469 C 17.238281 33.378906 17.238281 33.402344 17.242188 33.429688 C 17.316406 33.757812 17.644531 33.96875 17.980469 33.898438 Z M 17.980469 33.898438 " fill-opacity="1" fill-rule="nonzero"/><path fill="#000000" d="M 29.535156 36.039062 C 29.53125 36.015625 29.53125 35.992188 29.523438 35.96875 L 28.898438 32.890625 C 28.816406 32.492188 28.621094 32.121094 28.339844 31.824219 L 27.953125 31.417969 C 27.921875 31.4375 27.890625 31.457031 27.855469 31.472656 C 26.609375 32 25.65625 32.773438 25.074219 33.332031 C 24.644531 33.746094 24.410156 34.046875 24.410156 34.046875 C 24.402344 34.054688 24.394531 34.0625 24.390625 34.070312 L 24.675781 34.367188 L 25.175781 36.832031 C 25.183594 36.855469 25.1875 36.878906 25.195312 36.902344 C 25.9375 36.273438 27.398438 35.90625 28.523438 35.90625 C 28.949219 35.90625 29.277344 35.957031 29.535156 36.039062 Z M 29.535156 36.039062 " fill-opacity="1" fill-rule="nonzero"/><g clip-path="url(#9d96358280)"><path fill="#000000" d="M 29.105469 45.003906 C 30.449219 44.738281 31.320312 43.445312 31.050781 42.117188 L 29.992188 36.941406 C 29.722656 35.617188 24.851562 36.582031 25.121094 37.910156 L 26.179688 43.085938 C 26.417969 44.25 27.457031 45.054688 28.613281 45.054688 C 28.777344 45.054688 28.941406 45.039062 29.105469 45.003906 Z M 30.273438 40.539062 C 30.289062 40.640625 30.222656 40.734375 30.121094 40.753906 L 29.398438 40.878906 C 29.296875 40.898438 29.199219 40.828125 29.179688 40.730469 C 29.164062 40.628906 29.230469 40.53125 29.332031 40.511719 L 30.054688 40.386719 C 30.15625 40.371094 30.253906 40.4375 30.273438 40.539062 Z M 30.117188 39.601562 C 30.136719 39.703125 30.066406 39.796875 29.964844 39.816406 L 29.242188 39.941406 C 29.140625 39.960938 29.042969 39.890625 29.023438 39.792969 C 29.007812 39.691406 29.074219 39.59375 29.179688 39.574219 L 29.898438 39.449219 C 30 39.433594 30.097656 39.5 30.117188 39.601562 Z M 29.984375 38.722656 C 30.003906 38.824219 29.933594 38.917969 29.832031 38.9375 L 29.113281 39.0625 C 29.011719 39.082031 28.914062 39.015625 28.894531 38.914062 C 28.875 38.8125 28.945312 38.714844 29.046875 38.699219 L 29.765625 38.570312 C 29.871094 38.554688 29.96875 38.621094 29.984375 38.722656 Z M 29.984375 38.722656 " fill-opacity="1" fill-rule="nonzero"/></g><g clip-path="url(#354542ceb2)"><path fill="#000000" d="M 23.492188 23.976562 C 23.503906 23.714844 23.519531 23.453125 23.542969 23.191406 L 22.664062 22.753906 C 22.242188 22.546875 21.921875 22.1875 21.761719 21.75 L 19.925781 16.683594 C 19.585938 15.746094 20.082031 14.710938 21.03125 14.378906 C 21.230469 14.308594 21.4375 14.273438 21.644531 14.273438 C 22.414062 14.273438 23.105469 14.753906 23.367188 15.46875 L 24.367188 18.230469 C 24.449219 17.84375 24.53125 17.472656 24.601562 17.128906 C 25.140625 15.355469 24.453125 13.234375 22.875 12.863281 C 22.601562 12.800781 22.308594 12.773438 22.003906 12.78125 L 22.003906 12.765625 L 21.824219 12.792969 C 21.675781 12.804688 21.53125 12.824219 21.382812 12.855469 L 12.957031 14.054688 C 12.957031 14.054688 11.246094 14.851562 11.648438 17.035156 C 12.355469 16.757812 14.25 16.085938 16.058594 16.136719 C 14.554688 16.566406 12.773438 17.699219 11.902344 18.296875 C 12.476562 21.070312 13.558594 25.816406 13.558594 25.816406 C 13.558594 25.816406 14.0625 27.003906 15.46875 26.707031 C 15.847656 26.628906 16.421875 26.457031 17.0625 26.246094 C 17.0625 26.246094 17.0625 26.25 17.066406 26.253906 C 17.804688 26.03125 20.257812 25.269531 23.492188 23.976562 Z M 23.492188 23.976562 " fill-opacity="1" fill-rule="nonzero"/></g><path fill="#000000" d="M 17.457031 27.234375 C 17.5625 27.417969 17.675781 27.585938 17.796875 27.730469 C 17.875 27.847656 17.960938 27.957031 18.058594 28.0625 L 23 33.246094 C 22.917969 33.492188 22.996094 33.765625 23.214844 33.929688 C 23.488281 34.132812 23.875 34.078125 24.082031 33.804688 C 24.097656 33.789062 25.429688 32.0625 27.695312 31.101562 C 27.765625 31.070312 27.828125 31.027344 27.882812 30.976562 C 28.0625 30.804688 28.125 30.535156 28.019531 30.296875 C 27.921875 30.074219 27.703125 29.9375 27.472656 29.929688 C 27.382812 29.925781 27.292969 29.9375 27.203125 29.976562 C 27.203125 29.976562 27.199219 29.976562 27.195312 29.980469 L 26.046875 28.773438 L 25.648438 29.839844 L 23.980469 30.199219 L 21.714844 27.652344 L 23.804688 26.421875 L 23.695312 26.308594 L 23.578125 26.183594 C 23.53125 25.832031 23.503906 25.472656 23.488281 25.113281 C 20.53125 26.277344 18.273438 26.988281 17.457031 27.234375 Z M 17.457031 27.234375 " fill-opacity="1" fill-rule="nonzero"/><path fill="#000000" d="M 22.34375 27.75 L 24.128906 29.757812 L 25.34375 29.492188 L 25.769531 28.363281 L 24.328125 26.582031 Z M 22.34375 27.75 " fill-opacity="1" fill-rule="nonzero"/><path fill="#000000" d="M 27.296875 26.542969 C 27.195312 26.710938 27.246094 26.925781 27.414062 27.03125 C 27.578125 27.136719 27.800781 27.089844 27.90625 26.925781 L 28.691406 25.75 L 28 25.40625 Z M 27.296875 26.542969 " fill-opacity="1" fill-rule="nonzero"/><g clip-path="url(#40d60acc42)"><path fill="#000000" d="M 30.691406 22.746094 L 31.535156 21.480469 C 32.648438 22.183594 33.824219 23.339844 33.824219 23.339844 L 34.015625 23.109375 C 34.015625 23.109375 33.195312 21.679688 31.957031 20.851562 L 32.125 20.597656 L 31.28125 20.074219 L 31.085938 20.390625 L 30.046875 19.949219 C 29.953125 19.90625 29.84375 19.949219 29.800781 20.042969 L 29.609375 20.488281 C 29.566406 20.582031 29.609375 20.691406 29.707031 20.730469 L 30.636719 21.125 L 29.902344 22.3125 L 30.382812 22.550781 C 30.496094 22.605469 30.597656 22.671875 30.691406 22.746094 Z M 30.691406 22.746094 " fill-opacity="1" fill-rule="nonzero"/></g><path fill="#000000" d="M 21.167969 14.757812 C 20.429688 15.015625 20.046875 15.820312 20.308594 16.546875 L 22.148438 21.617188 C 22.269531 21.953125 22.519531 22.234375 22.847656 22.394531 L 28.925781 25.414062 C 29.128906 25.515625 29.347656 25.5625 29.5625 25.5625 C 30.082031 25.5625 30.582031 25.28125 30.828125 24.792969 C 31.183594 24.101562 30.898438 23.257812 30.199219 22.910156 L 24.628906 20.144531 L 22.980469 15.601562 C 22.71875 14.875 21.90625 14.496094 21.167969 14.757812 Z M 21.167969 14.757812 " fill-opacity="1" fill-rule="nonzero"/><path fill="#000000" d="M 23.800781 24.144531 L 23.800781 24.585938 C 23.800781 24.714844 23.90625 24.816406 24.035156 24.816406 C 24.164062 24.816406 24.269531 24.714844 24.269531 24.585938 L 24.269531 24.144531 C 24.269531 24.019531 24.171875 23.921875 24.046875 23.914062 C 24.042969 23.914062 24.039062 23.910156 24.035156 23.910156 C 23.90625 23.910156 23.800781 24.015625 23.800781 24.144531 Z M 23.800781 24.144531 " fill-opacity="1" fill-rule="nonzero"/></svg>