<svg xmlns="http://www.w3.org/2000/svg" xmlns:xlink="http://www.w3.org/1999/xlink" width="64" zoomAndPan="magnify" viewBox="0 0 48 48" height="64" preserveAspectRatio="xMidYMid meet" version="1.0"><defs><clipPath id="873ed05087"><path d="M 13.339844 0.871094 L 38.316406 0.871094 L 38.316406 25 L 13.339844 25 Z M 13.339844 0.871094 " clip-rule="nonzero"/></clipPath><clipPath id="8749da337b"><path d="M 16 3 L 38.316406 3 L 38.316406 6 L 16 6 Z M 16 3 " clip-rule="nonzero"/></clipPath><clipPath id="54bad27182"><path d="M 13.339844 2 L 38.316406 2 L 38.316406 24 L 13.339844 24 Z M 13.339844 2 " clip-rule="nonzero"/></clipPath><clipPath id="42a3ab1943"><path d="M 19 23 L 27 23 L 27 46.421875 L 19 46.421875 Z M 19 23 " clip-rule="nonzero"/></clipPath><clipPath id="ac4d7a3be4"><path d="M 13.339844 0.871094 L 38.316406 0.871094 L 38.316406 5 L 13.339844 5 Z M 13.339844 0.871094 " clip-rule="nonzero"/></clipPath><clipPath id="0bfd594154"><path d="M 13.339844 4 L 14 4 L 14 6 L 13.339844 6 Z M 13.339844 4 " clip-rule="nonzero"/></clipPath><clipPath id="737347ffe6"><path d="M 20 24 L 27 24 L 27 46.421875 L 20 46.421875 Z M 20 24 " clip-rule="nonzero"/></clipPath></defs><g clip-path="url(#873ed05087)"><path fill="#687b99" d="M 28.222656 0.871094 L 13.34375 0.871094 L 13.34375 5.375 L 16.859375 5.375 C 16.859375 4.339844 17.6875 3.503906 18.707031 3.503906 L 19.875 3.503906 C 20.933594 3.503906 21.773438 4.40625 21.71875 5.476562 L 20.742188 23.601562 L 20.726562 24.203125 L 25.6875 24.203125 L 25.671875 23.585938 L 24.8125 7.105469 C 24.699219 4.953125 26.410156 3.15625 28.53125 3.191406 L 28.566406 3.191406 C 34.078125 3.285156 38.082031 4.03125 38.082031 4.03125 L 38.3125 3.226562 C 34.160156 1.195312 28.222656 0.871094 28.222656 0.871094 " fill-opacity="1" fill-rule="nonzero"/></g><g clip-path="url(#8749da337b)"><path fill="#a5a7a6" d="M 16.859375 5.371094 L 16.859375 5.371094 M 16.859375 5.371094 C 16.859375 5.367188 16.859375 5.367188 16.859375 5.367188 C 16.859375 5.367188 16.859375 5.367188 16.859375 5.371094 M 16.859375 5.367188 C 16.859375 5.367188 16.859375 5.367188 16.859375 5.363281 C 16.859375 5.367188 16.859375 5.367188 16.859375 5.367188 M 16.859375 5.363281 L 16.859375 5.363281 M 16.859375 5.359375 L 16.859375 5.359375 M 16.859375 5.359375 C 16.859375 5.355469 16.859375 5.355469 16.859375 5.355469 C 16.859375 5.355469 16.859375 5.355469 16.859375 5.359375 M 16.859375 5.355469 C 16.859375 5.355469 16.859375 5.355469 16.859375 5.351562 C 16.859375 5.355469 16.859375 5.355469 16.859375 5.355469 M 16.859375 5.351562 L 16.859375 5.351562 M 16.859375 5.347656 L 16.859375 5.347656 M 16.859375 5.347656 C 16.859375 5.34375 16.859375 5.34375 16.859375 5.34375 C 16.859375 5.34375 16.859375 5.34375 16.859375 5.347656 M 16.859375 5.34375 C 16.859375 5.339844 16.859375 5.332031 16.859375 5.328125 C 16.859375 5.332031 16.859375 5.339844 16.859375 5.34375 M 16.859375 5.328125 C 16.859375 5.328125 16.863281 5.324219 16.863281 5.324219 C 16.863281 5.324219 16.859375 5.328125 16.859375 5.328125 M 16.863281 5.324219 C 16.863281 5.324219 16.863281 5.324219 16.863281 5.320312 C 16.863281 5.324219 16.863281 5.324219 16.863281 5.324219 M 16.863281 5.320312 C 16.886719 4.421875 17.539062 3.679688 18.390625 3.53125 C 18.417969 3.527344 18.445312 3.523438 18.476562 3.519531 L 18.480469 3.519531 C 17.585938 3.628906 16.886719 4.390625 16.863281 5.320312 M 38.082031 4.03125 C 38.082031 4.03125 34.09375 3.289062 28.601562 3.191406 C 34.089844 3.289062 38.074219 4.027344 38.082031 4.03125 " fill-opacity="1" fill-rule="nonzero"/></g><g clip-path="url(#54bad27182)"><path fill="#48597e" d="M 25.671875 23.601562 L 24.445312 23.601562 C 24.355469 19.265625 24.0625 9.488281 23.972656 6.535156 L 24.832031 6.453125 C 24.808594 6.664062 24.800781 6.882812 24.8125 7.105469 L 25.671875 23.585938 L 25.671875 23.601562 M 25.011719 5.675781 L 23.945312 5.675781 C 23.945312 5.675781 24.109375 2.78125 27.785156 2.648438 C 27.96875 2.640625 28.164062 2.640625 28.363281 2.640625 C 31.453125 2.640625 36.40625 3.375 38.1875 3.660156 L 38.082031 4.03125 C 38.074219 4.027344 34.089844 3.289062 28.601562 3.191406 C 28.589844 3.191406 28.578125 3.191406 28.566406 3.191406 L 28.53125 3.191406 C 28.511719 3.191406 28.492188 3.191406 28.472656 3.191406 C 26.871094 3.191406 25.515625 4.230469 25.011719 5.675781 M 16.859375 5.375 L 13.875 5.375 L 13.929688 4.867188 C 15.027344 4.789062 16.371094 4.679688 16.371094 4.679688 C 16.371094 4.679688 16.570312 3.789062 18.390625 3.53125 C 17.539062 3.679688 16.886719 4.421875 16.863281 5.320312 C 16.863281 5.324219 16.863281 5.324219 16.863281 5.324219 C 16.863281 5.324219 16.859375 5.328125 16.859375 5.328125 C 16.859375 5.332031 16.859375 5.339844 16.859375 5.34375 C 16.859375 5.34375 16.859375 5.34375 16.859375 5.347656 C 16.859375 5.347656 16.859375 5.351562 16.859375 5.351562 C 16.859375 5.355469 16.859375 5.355469 16.859375 5.355469 C 16.859375 5.355469 16.859375 5.355469 16.859375 5.359375 C 16.859375 5.359375 16.859375 5.363281 16.859375 5.363281 C 16.859375 5.367188 16.859375 5.367188 16.859375 5.367188 C 16.859375 5.367188 16.859375 5.367188 16.859375 5.371094 C 16.859375 5.375 16.859375 5.375 16.859375 5.375 " fill-opacity="1" fill-rule="nonzero"/></g><g clip-path="url(#42a3ab1943)"><path fill="#2e3247" d="M 25.675781 23.601562 L 20.742188 23.601562 L 19.75 24.613281 L 19.75 45.136719 L 20.960938 46.421875 L 25.460938 46.421875 L 26.671875 45.136719 L 26.671875 24.613281 L 25.675781 23.601562 " fill-opacity="1" fill-rule="nonzero"/></g><path fill="#bf2136" d="M 23.210938 35.636719 C 22.515625 35.636719 21.957031 36.203125 21.957031 36.90625 L 21.957031 43.703125 C 21.957031 44.40625 22.515625 44.976562 23.210938 44.976562 C 23.902344 44.976562 24.464844 44.40625 24.464844 43.703125 L 24.464844 36.90625 C 24.464844 36.203125 23.902344 35.636719 23.210938 35.636719 " fill-opacity="1" fill-rule="nonzero"/><path fill="#404360" d="M 23.210938 33.609375 C 22.804688 33.609375 22.472656 33.273438 22.472656 32.863281 L 22.472656 26.636719 C 22.472656 26.222656 22.804688 25.890625 23.210938 25.890625 C 23.617188 25.890625 23.945312 26.222656 23.945312 26.636719 L 23.945312 32.863281 C 23.945312 33.273438 23.617188 33.609375 23.210938 33.609375 " fill-opacity="1" fill-rule="nonzero"/><g clip-path="url(#ac4d7a3be4)"><path fill="#88a0b4" d="M 13.34375 4.90625 L 13.34375 0.871094 L 28.222656 0.871094 C 28.222656 0.871094 34.160156 1.195312 38.3125 3.226562 L 38.308594 3.238281 C 36.214844 2.613281 32.375 1.640625 28.347656 1.464844 C 22.425781 1.464844 14.296875 1.464844 14.296875 1.464844 L 13.929688 4.867188 C 13.722656 4.878906 13.523438 4.894531 13.34375 4.90625 " fill-opacity="1" fill-rule="nonzero"/></g><g clip-path="url(#0bfd594154)"><path fill="#6274a7" d="M 13.875 5.375 L 13.34375 5.375 L 13.34375 4.90625 C 13.523438 4.894531 13.722656 4.878906 13.929688 4.867188 L 13.875 5.375 " fill-opacity="1" fill-rule="nonzero"/></g><path fill="#ffffff" d="M 20.167969 45.585938 L 19.75 45.136719 L 20.167969 45.585938 M 19.75 24.613281 L 20.742188 23.601562 L 20.742188 23.605469 L 19.75 24.613281 M 20.742188 23.601562 L 21.707031 5.675781 L 20.742188 23.601562 M 24.832031 6.453125 C 24.867188 6.183594 24.925781 5.921875 25.011719 5.675781 L 25.015625 5.675781 C 24.929688 5.921875 24.867188 6.183594 24.835938 6.453125 L 24.832031 6.453125 " fill-opacity="1" fill-rule="nonzero"/><path fill="#88a0b4" d="M 20.742188 23.605469 L 20.742188 23.601562 L 21.707031 5.675781 L 23.945312 5.675781 C 23.945312 5.675781 23.953125 5.988281 23.972656 6.535156 L 22.539062 6.667969 L 21.957031 23.601562 L 20.742188 23.601562 L 20.742188 23.605469 M 24.832031 6.453125 C 24.867188 6.183594 24.925781 5.921875 25.011719 5.675781 C 24.925781 5.921875 24.867188 6.183594 24.832031 6.453125 " fill-opacity="1" fill-rule="nonzero"/><path fill="#6274a7" d="M 23.972656 6.535156 C 23.953125 5.988281 23.945312 5.675781 23.945312 5.675781 L 25.011719 5.675781 C 24.925781 5.921875 24.867188 6.183594 24.832031 6.453125 L 23.972656 6.535156 " fill-opacity="1" fill-rule="nonzero"/><path fill="#404360" d="M 19.75 45.136719 L 19.75 24.613281 L 20.742188 23.601562 L 25.675781 23.601562 L 26.671875 24.613281 L 25.675781 23.601562 L 24.464844 23.601562 L 25.136719 24.730469 L 21.445312 25.019531 L 20.234375 44.519531 L 19.75 44.699219 L 19.75 45.136719 " fill-opacity="1" fill-rule="nonzero"/><g clip-path="url(#737347ffe6)"><path fill="#1f222f" d="M 25.460938 46.421875 L 20.960938 46.421875 L 20.167969 45.585938 L 20.234375 44.519531 L 21.964844 43.871094 C 22.046875 44.492188 22.570312 44.976562 23.210938 44.976562 C 23.902344 44.976562 24.464844 44.40625 24.464844 43.703125 L 24.464844 36.90625 C 24.464844 36.875 24.460938 36.84375 24.460938 36.8125 L 25.40625 25.183594 L 25.136719 24.730469 L 26.671875 24.613281 L 26.671875 45.136719 L 25.460938 46.421875 " fill-opacity="1" fill-rule="nonzero"/></g><path fill="#ab1b2a" d="M 23.210938 44.976562 C 22.570312 44.976562 22.046875 44.492188 21.964844 43.871094 L 23.945312 43.128906 L 24.460938 36.8125 C 24.460938 36.84375 24.464844 36.875 24.464844 36.90625 L 24.464844 43.703125 C 24.464844 44.40625 23.902344 44.976562 23.210938 44.976562 " fill-opacity="1" fill-rule="nonzero"/><path fill="#292d3f" d="M 20.167969 45.585938 L 19.75 45.136719 L 19.75 44.699219 L 20.234375 44.519531 L 20.167969 45.585938 M 25.136719 24.730469 L 24.464844 23.601562 L 25.675781 23.601562 L 26.671875 24.613281 L 25.136719 24.730469 " fill-opacity="1" fill-rule="nonzero"/></svg>