<svg xmlns="http://www.w3.org/2000/svg" xmlns:xlink="http://www.w3.org/1999/xlink" width="64" zoomAndPan="magnify" viewBox="0 0 48 48" height="64" preserveAspectRatio="xMidYMid meet" version="1.0"><defs><clipPath id="10acf325d5"><path d="M 5.191406 1.769531 L 44.128906 1.769531 L 44.128906 47 L 5.191406 47 Z M 5.191406 1.769531 " clip-rule="nonzero"/></clipPath><clipPath id="32b85d7697"><path d="M 5.191406 1.769531 L 44.128906 1.769531 L 44.128906 47 L 5.191406 47 Z M 5.191406 1.769531 " clip-rule="nonzero"/></clipPath></defs><g clip-path="url(#10acf325d5)"><path fill="#000000" d="M 40.964844 31.929688 C 40.644531 31.195312 40.355469 30.503906 40.21875 29.71875 C 40.121094 29.15625 40.023438 28.679688 39.707031 28.210938 C 38.652344 26.648438 36.476562 26.023438 34.808594 25.425781 C 33.722656 25.035156 32.664062 24.644531 31.683594 24.019531 C 30.851562 23.492188 30.078125 22.832031 29.550781 21.984375 C 29.164062 21.359375 29.148438 20.425781 29 19.71875 C 29 19.714844 28.996094 19.707031 28.996094 19.703125 C 29.199219 19.222656 29.308594 18.699219 29.363281 18.128906 C 29.378906 17.984375 29.386719 17.839844 29.390625 17.691406 C 29.425781 17.679688 29.460938 17.664062 29.492188 17.648438 C 31.128906 16.640625 31.421875 14.730469 30.855469 12.921875 C 30.84375 12.875 30.824219 12.839844 30.804688 12.792969 C 32.023438 12.671875 33.3125 12.75 34.261719 11.871094 C 34.78125 11.390625 34.773438 10.757812 34.492188 10.246094 C 34.484375 10.214844 34.484375 10.191406 34.472656 10.160156 C 34.4375 10.058594 34.402344 9.949219 34.332031 9.84375 C 34.300781 9.792969 34.269531 9.734375 34.234375 9.679688 C 34.191406 9.628906 34.144531 9.582031 34.101562 9.527344 C 33.921875 9.320312 33.679688 9.144531 33.40625 8.960938 C 33.128906 8.816406 32.824219 8.652344 32.492188 8.472656 C 32.316406 8.378906 32.128906 8.292969 31.925781 8.207031 C 31.929688 8.164062 31.929688 8.121094 31.921875 8.074219 C 31.214844 4.25 27.390625 1.839844 23.710938 1.808594 C 20.597656 1.777344 16.851562 4.605469 16.75 7.898438 C 16.699219 7.917969 16.652344 7.933594 16.605469 7.957031 C 16.113281 8.15625 15.625 8.433594 15.195312 8.777344 C 14.96875 8.957031 14.75 9.152344 14.542969 9.347656 C 14.335938 9.476562 14.167969 9.636719 14.050781 9.832031 C 14.027344 9.859375 14.003906 9.878906 13.980469 9.90625 L 14 9.921875 C 13.972656 9.980469 13.949219 10.042969 13.925781 10.109375 C 13.449219 11.75 16.179688 12.589844 18.03125 12.878906 C 17.898438 13.175781 17.824219 13.535156 17.796875 13.875 C 17.75 14.527344 17.824219 15.1875 17.914062 15.824219 C 18.054688 16.765625 18.644531 17.03125 19.410156 17.425781 C 19.449219 17.449219 19.488281 17.460938 19.527344 17.46875 C 19.554688 18.578125 19.707031 19.4375 20.324219 20.410156 C 20.359375 20.460938 20.394531 20.507812 20.425781 20.554688 C 20.414062 20.589844 20.402344 20.628906 20.394531 20.671875 C 19.710938 25.832031 12.15625 25.171875 9.382812 28.476562 C 8.652344 29.347656 8.386719 30.589844 8.175781 31.675781 C 7.886719 33.152344 7.492188 34.550781 7.097656 36 C 6.671875 37.578125 6.582031 39.238281 6.320312 40.847656 C 6.054688 42.496094 5.695312 44.125 5.289062 45.742188 C 5.253906 45.902344 5.296875 46.035156 5.382812 46.132812 C 5.445312 46.339844 5.636719 46.507812 5.902344 46.429688 C 7.46875 45.980469 8.820312 46.25 10.398438 46.429688 C 11.867188 46.597656 13.378906 46.066406 14.847656 46.039062 C 16.472656 46.007812 18.101562 46.347656 19.726562 46.386719 C 21.632812 46.433594 23.542969 46.488281 25.453125 46.542969 C 28.652344 46.632812 31.855469 46.703125 35.058594 46.730469 C 35.054688 46.730469 35.054688 46.734375 35.054688 46.742188 L 35.929688 46.839844 C 35.929688 46.804688 35.933594 46.769531 35.941406 46.738281 C 36.066406 46.738281 36.199219 46.742188 36.332031 46.742188 C 38.800781 46.75 41.527344 47.339844 43.847656 46.242188 C 44.054688 46.136719 44.105469 45.949219 44.050781 45.78125 C 44.0625 45.722656 44.0625 45.660156 44.050781 45.59375 C 43.378906 42.480469 43.398438 39.273438 42.609375 36.175781 C 42.230469 34.707031 41.5625 33.316406 40.964844 31.929688 " fill-opacity="1" fill-rule="nonzero"/></g><path fill="#c69c6d" d="M 41.609375 35.878906 C 42.632812 39.007812 42.507812 42.378906 43.15625 45.589844 C 42.640625 45.792969 42.101562 45.90625 41.550781 45.957031 C 41.527344 45.828125 41.503906 45.683594 41.472656 45.527344 C 41.429688 45.320312 41.402344 45.085938 41.371094 44.828125 C 41.34375 44.566406 41.308594 44.285156 41.273438 43.980469 C 41.238281 43.675781 41.203125 43.34375 41.164062 42.988281 C 41.121094 42.632812 41.058594 42.25 41 41.84375 C 40.847656 41.039062 40.644531 40.132812 40.417969 39.121094 C 39.914062 37.160156 39.210938 34.808594 38.304688 32.007812 C 38.378906 31.867188 38.453125 31.726562 38.523438 31.578125 C 38.789062 31.054688 39.0625 30.480469 39.328125 29.855469 C 39.445312 30.296875 39.554688 30.765625 39.738281 31.25 C 40.328125 32.808594 41.089844 34.289062 41.609375 35.878906 " fill-opacity="1" fill-rule="nonzero"/><path fill="#c69c6d" d="M 41.234375 45.574219 C 41.265625 45.71875 41.296875 45.851562 41.332031 45.976562 C 40.558594 46.03125 39.777344 45.984375 39.015625 45.949219 C 38.015625 45.898438 37.015625 45.875 36.015625 45.863281 C 36.105469 44.589844 36.101562 43.402344 36.078125 42.316406 C 36.03125 40.960938 35.992188 39.738281 35.957031 38.632812 C 35.949219 38.355469 35.941406 38.085938 35.941406 37.824219 C 36.007812 37.492188 36.101562 37.066406 36.273438 36.515625 C 36.507812 35.765625 36.890625 34.804688 37.5 33.601562 C 37.664062 33.273438 37.839844 32.929688 38.023438 32.566406 C 38.863281 35.179688 39.53125 37.382812 40.027344 39.21875 C 40.257812 40.222656 40.472656 41.117188 40.640625 41.910156 C 40.707031 42.308594 40.769531 42.683594 40.828125 43.03125 C 40.875 43.386719 40.921875 43.714844 40.964844 44.019531 C 41.011719 44.324219 41.054688 44.609375 41.097656 44.867188 C 41.136719 45.125 41.175781 45.363281 41.234375 45.574219 " fill-opacity="1" fill-rule="nonzero"/><path fill="#a67c52" d="M 32.257812 8.984375 C 32.300781 9.003906 32.339844 9.023438 32.382812 9.039062 C 31.582031 8.898438 30.726562 8.894531 29.996094 8.878906 C 27.933594 8.824219 25.863281 8.886719 23.800781 8.886719 C 21.699219 8.886719 19.59375 8.789062 17.496094 8.8125 C 17.304688 8.8125 17.070312 8.8125 16.8125 8.824219 C 16.855469 8.804688 16.894531 8.785156 16.9375 8.765625 C 17.355469 8.582031 17.800781 8.488281 18.257812 8.382812 C 18.707031 8.269531 19.15625 8.203125 19.585938 8.125 C 20.023438 8.0625 20.449219 8.003906 20.867188 7.96875 C 21.289062 7.941406 21.691406 7.90625 22.105469 7.886719 C 22.921875 7.84375 23.6875 7.796875 24.417969 7.765625 C 25.867188 7.710938 27.152344 7.730469 28.273438 7.875 C 28.558594 7.898438 28.824219 7.953125 29.078125 8.003906 C 29.335938 8.054688 29.585938 8.097656 29.828125 8.15625 C 30.066406 8.222656 30.296875 8.289062 30.515625 8.351562 C 30.734375 8.417969 30.953125 8.472656 31.152344 8.554688 C 31.546875 8.710938 31.929688 8.832031 32.257812 8.984375 " fill-opacity="1" fill-rule="nonzero"/><path fill="#c69c6d" d="M 31.851562 25.152344 C 31.550781 25.664062 31.347656 26.210938 31.152344 26.769531 C 31.097656 26.472656 31.035156 26.199219 30.964844 25.949219 C 30.710938 24.96875 30.371094 24.300781 30.078125 23.898438 C 30.617188 24.371094 31.214844 24.785156 31.851562 25.152344 " fill-opacity="1" fill-rule="nonzero"/><path fill="#c69c6d" d="M 30.742188 27.832031 C 30.785156 28.507812 30.804688 29.277344 30.707031 30.101562 C 30.6875 30.3125 30.644531 30.515625 30.601562 30.726562 L 30.585938 30.796875 L 30.5625 30.875 C 30.5625 30.925781 30.511719 30.90625 30.480469 30.910156 C 30.453125 30.910156 30.457031 30.914062 30.410156 30.90625 L 30.242188 30.894531 C 30.132812 30.886719 30.019531 30.871094 29.902344 30.847656 C 29.789062 30.828125 29.671875 30.804688 29.554688 30.773438 C 29.4375 30.746094 29.316406 30.714844 29.195312 30.675781 C 28.898438 30.585938 28.597656 30.5 28.289062 30.40625 C 28.070312 30.332031 27.84375 30.304688 27.621094 30.257812 L 27.53125 30.242188 C 27.519531 30.242188 27.5 30.230469 27.492188 30.242188 L 27.492188 30.289062 L 27.484375 30.46875 C 27.480469 30.59375 27.46875 30.714844 27.476562 30.839844 C 27.484375 30.964844 27.492188 31.089844 27.503906 31.214844 C 27.507812 31.277344 27.511719 31.339844 27.527344 31.40625 L 27.585938 31.574219 C 27.632812 31.746094 27.714844 31.886719 27.789062 32.039062 C 27.867188 32.175781 27.945312 32.3125 28.023438 32.449219 C 28.082031 32.539062 28.066406 32.511719 28.070312 32.527344 L 28.09375 32.574219 C 28.089844 32.570312 28.082031 32.570312 28.078125 32.566406 C 28.066406 32.566406 28.050781 32.574219 28.042969 32.574219 C 28.039062 32.574219 28 32.59375 27.972656 32.605469 L 27.875 32.644531 L 27.691406 32.738281 C 27.445312 32.867188 27.214844 33.003906 26.980469 33.152344 C 26.75 33.292969 26.519531 33.449219 26.292969 33.609375 C 26.175781 33.691406 26.0625 33.773438 25.945312 33.867188 C 25.878906 33.914062 25.835938 33.945312 25.746094 34.023438 C 25.71875 34.050781 25.730469 34.035156 25.695312 34.078125 L 25.578125 34.210938 C 25.40625 34.40625 25.25 34.625 25.105469 34.855469 C 25.101562 34.71875 25.09375 34.574219 25.089844 34.433594 C 25.136719 34.253906 25.195312 34.070312 25.257812 33.867188 C 25.347656 33.589844 25.453125 33.289062 25.566406 32.964844 C 25.679688 32.644531 25.792969 32.289062 25.949219 31.953125 C 26.253906 31.257812 26.699219 30.503906 27.230469 29.664062 C 27.757812 28.820312 28.386719 27.890625 28.957031 26.75 C 29.230469 26.175781 29.507812 25.554688 29.667969 24.847656 C 29.738281 24.5625 29.789062 24.269531 29.816406 23.964844 C 30.035156 24.367188 30.3125 25.042969 30.507812 26.054688 C 30.609375 26.5625 30.6875 27.15625 30.742188 27.832031 " fill-opacity="1" fill-rule="nonzero"/><path fill="#c69c6d" d="M 29.789062 31.550781 C 29.84375 31.5625 29.894531 31.5625 29.949219 31.566406 C 29.621094 32.707031 29.179688 33.785156 28.347656 34.652344 C 27.597656 35.433594 26.546875 35.789062 25.496094 35.960938 C 25.667969 35.511719 25.902344 35.101562 26.203125 34.761719 L 26.265625 34.6875 C 26.265625 34.6875 26.296875 34.648438 26.300781 34.640625 C 26.3125 34.636719 26.316406 34.628906 26.316406 34.628906 L 26.445312 34.523438 C 26.550781 34.445312 26.65625 34.363281 26.765625 34.285156 C 26.980469 34.128906 27.199219 33.980469 27.417969 33.84375 C 27.632812 33.703125 27.851562 33.570312 28.0625 33.457031 C 28.21875 33.371094 28.359375 33.269531 28.503906 33.167969 C 28.691406 33.039062 28.878906 32.910156 29.101562 32.824219 C 28.855469 32.476562 28.652344 32.054688 28.460938 31.664062 C 28.40625 31.546875 28.335938 31.433594 28.304688 31.320312 C 28.289062 31.265625 28.289062 31.28125 28.285156 31.265625 L 28.277344 31.238281 C 28.28125 31.222656 28.265625 31.183594 28.289062 31.1875 C 28.308594 31.191406 28.3125 31.191406 28.371094 31.207031 C 28.449219 31.230469 28.535156 31.253906 28.613281 31.277344 C 28.746094 31.3125 28.871094 31.347656 29.003906 31.382812 C 29.132812 31.417969 29.265625 31.449219 29.394531 31.476562 C 29.527344 31.507812 29.660156 31.53125 29.789062 31.550781 " fill-opacity="1" fill-rule="nonzero"/><path fill="#a67c52" d="M 24.328125 2.6875 C 26.597656 2.792969 28.859375 4.101562 30.128906 6.007812 C 28.277344 5.554688 26.390625 5.371094 24.484375 5.261719 C 24.476562 4.734375 24.421875 4.289062 24.394531 3.925781 C 24.355469 3.488281 24.332031 3.148438 24.328125 2.890625 C 24.328125 2.820312 24.328125 2.75 24.328125 2.6875 " fill-opacity="1" fill-rule="nonzero"/><path fill="#c69c6d" d="M 24.269531 34.257812 C 24.304688 34.640625 24.3125 35.011719 24.308594 35.386719 C 24.238281 35.183594 24.15625 34.972656 24.0625 34.761719 C 23.710938 33.941406 23.132812 33.023438 22.175781 32.273438 C 22.054688 32.183594 21.929688 32.09375 21.800781 32.003906 C 21.738281 31.957031 21.667969 31.921875 21.601562 31.882812 L 21.554688 31.851562 C 21.546875 31.84375 21.535156 31.84375 21.53125 31.832031 L 21.554688 31.796875 C 21.601562 31.714844 21.652344 31.625 21.703125 31.539062 C 21.738281 31.46875 21.78125 31.398438 21.820312 31.324219 C 21.867188 31.230469 21.917969 31.132812 21.96875 31.039062 C 22.09375 30.761719 22.191406 30.464844 22.304688 30.167969 L 22.34375 30.054688 L 22.355469 30.03125 C 22.355469 30.023438 22.339844 30.027344 22.332031 30.023438 L 22.273438 30.015625 L 22.035156 29.992188 C 21.878906 29.980469 21.714844 29.964844 21.554688 29.949219 C 21.472656 29.941406 21.394531 29.933594 21.3125 29.929688 L 21.097656 29.9375 C 21 29.941406 20.898438 29.941406 20.804688 29.949219 C 20.410156 30 20.015625 30.078125 19.640625 30.207031 C 19.449219 30.261719 19.269531 30.328125 19.082031 30.390625 C 18.988281 30.425781 18.898438 30.457031 18.804688 30.492188 L 18.734375 30.515625 L 18.726562 30.515625 C 18.71875 30.515625 18.710938 30.523438 18.714844 30.507812 L 18.714844 30.496094 C 18.714844 30.414062 18.714844 30.332031 18.710938 30.25 C 18.710938 29.832031 18.707031 29.402344 18.722656 28.96875 C 18.742188 28.09375 18.8125 27.1875 19.003906 26.269531 C 19.136719 25.632812 19.34375 24.988281 19.667969 24.410156 C 19.695312 24.554688 19.722656 24.703125 19.761719 24.84375 C 19.929688 25.453125 20.160156 26.023438 20.417969 26.550781 C 20.945312 27.601562 21.558594 28.511719 22.125 29.375 C 22.691406 30.234375 23.214844 31.046875 23.609375 31.855469 C 23.996094 32.65625 24.207031 33.457031 24.269531 34.257812 " fill-opacity="1" fill-rule="nonzero"/><path fill="#a67c52" d="M 23.710938 2.6875 C 23.824219 2.683594 23.9375 2.679688 24.046875 2.679688 C 24.039062 2.738281 24.03125 2.804688 24.019531 2.875 C 23.980469 3.148438 23.972656 3.503906 23.988281 3.953125 C 24 4.316406 24.039062 4.75 24.046875 5.238281 C 23.9375 5.234375 23.828125 5.226562 23.71875 5.222656 C 21.945312 5.136719 20.007812 5.136719 18.3125 5.769531 C 19.449219 3.980469 21.773438 2.78125 23.710938 2.6875 " fill-opacity="1" fill-rule="nonzero"/><path fill="#c69c6d" d="M 23.5 35.023438 C 23.640625 35.304688 23.75 35.574219 23.847656 35.839844 C 21.640625 35.28125 20.625 33.070312 19.5625 31.109375 C 19.675781 31.066406 19.785156 31.03125 19.890625 30.996094 C 20.234375 30.875 20.566406 30.808594 20.886719 30.761719 C 20.988281 30.753906 21.085938 30.75 21.183594 30.742188 C 21.195312 30.746094 21.230469 30.734375 21.226562 30.75 C 21.21875 30.765625 21.21875 30.777344 21.210938 30.796875 L 21.136719 30.953125 C 21.105469 31.019531 21.058594 31.09375 21.023438 31.164062 C 20.988281 31.238281 20.949219 31.304688 20.910156 31.375 C 20.851562 31.5 20.789062 31.621094 20.726562 31.742188 C 20.664062 31.871094 20.601562 32 20.539062 32.125 C 20.535156 32.128906 20.527344 32.140625 20.53125 32.144531 L 20.554688 32.160156 L 20.601562 32.1875 L 20.695312 32.238281 L 20.878906 32.339844 C 20.996094 32.402344 21.109375 32.464844 21.226562 32.527344 C 21.285156 32.5625 21.347656 32.59375 21.402344 32.632812 C 21.519531 32.710938 21.628906 32.785156 21.738281 32.855469 C 22.59375 33.492188 23.140625 34.28125 23.5 35.023438 " fill-opacity="1" fill-rule="nonzero"/><path fill="#c69c6d" d="M 18.550781 24.726562 C 18.367188 25.179688 18.242188 25.644531 18.144531 26.089844 C 18.097656 26.332031 18.054688 26.574219 18.019531 26.8125 C 17.800781 26.339844 17.59375 25.859375 17.417969 25.367188 C 17.8125 25.167969 18.191406 24.957031 18.550781 24.726562 " fill-opacity="1" fill-rule="nonzero"/><path fill="#c69c6d" d="M 10.058594 29.179688 C 10.386719 29.777344 10.699219 30.335938 10.992188 30.859375 C 9.828125 33.8125 9.148438 36.386719 8.722656 38.523438 C 8.625 39.085938 8.539062 39.613281 8.453125 40.117188 C 8.414062 40.363281 8.371094 40.601562 8.335938 40.835938 C 8.292969 41.066406 8.25 41.289062 8.203125 41.507812 C 8.015625 42.378906 7.855469 43.148438 7.785156 43.828125 C 7.722656 44.371094 7.726562 44.863281 7.796875 45.285156 C 7.285156 45.285156 6.777344 45.332031 6.257812 45.4375 C 6.957031 42.390625 7.210938 39.261719 7.945312 36.234375 C 8.300781 34.777344 8.757812 33.394531 9.023438 31.910156 C 9.214844 30.828125 9.515625 29.925781 10.058594 29.179688 " fill-opacity="1" fill-rule="nonzero"/><path fill="#c69c6d" d="M 13.769531 37.8125 C 13.84375 38.898438 13.832031 40.113281 13.761719 41.472656 C 13.707031 42.613281 13.609375 43.859375 13.554688 45.210938 C 12.199219 45.335938 10.917969 45.648438 9.511719 45.425781 C 9.015625 45.347656 8.53125 45.296875 8.058594 45.285156 C 8.003906 44.882812 8.015625 44.414062 8.09375 43.867188 C 8.183594 43.207031 8.359375 42.457031 8.558594 41.585938 C 8.609375 41.371094 8.660156 41.140625 8.707031 40.902344 C 8.746094 40.667969 8.792969 40.425781 8.835938 40.175781 C 8.925781 39.679688 9.023438 39.160156 9.121094 38.601562 C 9.542969 36.574219 10.195312 34.148438 11.269531 31.359375 C 11.699219 32.144531 12.078125 32.851562 12.386719 33.503906 C 13.027344 34.824219 13.402344 35.902344 13.632812 36.734375 C 13.648438 36.785156 13.660156 36.832031 13.671875 36.882812 C 13.675781 36.933594 13.683594 36.980469 13.6875 37.027344 C 13.714844 37.28125 13.742188 37.542969 13.769531 37.8125 " fill-opacity="1" fill-rule="nonzero"/><path fill="#c69c6d" d="M 30.960938 7.8125 C 30.878906 7.785156 30.796875 7.757812 30.714844 7.730469 C 30.484375 7.65625 30.25 7.574219 30.003906 7.492188 C 29.753906 7.425781 29.488281 7.371094 29.21875 7.308594 C 28.945312 7.242188 28.664062 7.179688 28.371094 7.144531 C 27.199219 6.96875 25.867188 6.917969 24.390625 6.953125 C 23.652344 6.972656 22.875 7.007812 22.066406 7.042969 C 21.660156 7.054688 21.230469 7.085938 20.796875 7.117188 C 20.710938 7.121094 20.625 7.132812 20.539062 7.140625 C 20.539062 7.0625 20.535156 6.984375 20.53125 6.914062 C 20.511719 6.792969 20.488281 6.6875 20.46875 6.589844 C 20.421875 6.414062 20.371094 6.277344 20.332031 6.179688 C 21.453125 6.027344 22.621094 6.0625 23.71875 6.105469 C 26.070312 6.191406 28.421875 6.40625 30.6875 7.070312 C 30.691406 7.074219 30.699219 7.074219 30.707031 7.074219 C 30.804688 7.3125 30.890625 7.558594 30.960938 7.8125 " fill-opacity="1" fill-rule="nonzero"/><g clip-path="url(#32b85d7697)"><path fill="#000000" d="M 10.992188 30.859375 C 10.699219 30.335938 10.386719 29.777344 10.058594 29.179688 C 9.515625 29.925781 9.214844 30.828125 9.023438 31.910156 C 8.757812 33.394531 8.300781 34.777344 7.945312 36.234375 C 7.210938 39.261719 6.957031 42.390625 6.257812 45.4375 C 6.777344 45.332031 7.285156 45.285156 7.796875 45.285156 C 7.726562 44.863281 7.722656 44.371094 7.785156 43.828125 C 7.855469 43.148438 8.015625 42.378906 8.203125 41.507812 C 8.25 41.289062 8.292969 41.066406 8.335938 40.835938 C 8.371094 40.601562 8.414062 40.363281 8.453125 40.117188 C 8.539062 39.613281 8.625 39.085938 8.722656 38.523438 C 9.148438 36.386719 9.828125 33.8125 10.992188 30.859375 Z M 13.761719 41.472656 C 13.832031 40.113281 13.84375 38.898438 13.769531 37.8125 C 13.742188 37.542969 13.714844 37.28125 13.6875 37.027344 C 13.683594 36.980469 13.675781 36.933594 13.671875 36.882812 C 13.660156 36.832031 13.648438 36.785156 13.632812 36.734375 C 13.402344 35.902344 13.027344 34.824219 12.386719 33.503906 C 12.078125 32.851562 11.699219 32.144531 11.269531 31.359375 C 10.195312 34.148438 9.542969 36.574219 9.121094 38.601562 C 9.023438 39.160156 8.925781 39.679688 8.835938 40.175781 C 8.792969 40.425781 8.746094 40.667969 8.707031 40.902344 C 8.660156 41.140625 8.609375 41.371094 8.558594 41.585938 C 8.359375 42.457031 8.183594 43.207031 8.09375 43.867188 C 8.015625 44.414062 8.003906 44.882812 8.058594 45.285156 C 8.53125 45.296875 9.015625 45.347656 9.511719 45.425781 C 10.917969 45.648438 12.199219 45.335938 13.554688 45.210938 C 13.609375 43.859375 13.707031 42.613281 13.761719 41.472656 Z M 18.144531 26.089844 C 18.242188 25.644531 18.367188 25.179688 18.550781 24.726562 C 18.191406 24.957031 17.8125 25.167969 17.417969 25.367188 C 17.59375 25.859375 17.800781 26.339844 18.019531 26.8125 C 18.054688 26.574219 18.097656 26.332031 18.144531 26.089844 Z M 18.320312 12.015625 C 18.300781 11.957031 18.285156 11.902344 18.269531 11.847656 C 18.203125 11.664062 18.195312 11.484375 18.183594 11.304688 C 18.179688 11.214844 18.175781 11.125 18.167969 11.039062 C 18.171875 10.960938 18.171875 10.878906 18.175781 10.800781 C 18.179688 10.480469 18.195312 10.207031 18.179688 9.953125 C 18.167969 9.855469 18.160156 9.765625 18.148438 9.667969 C 17.289062 9.640625 16.414062 9.65625 15.625 9.894531 C 13.636719 10.496094 16.195312 11.464844 16.964844 11.679688 C 17.402344 11.804688 17.859375 11.929688 18.320312 12.015625 Z M 18.679688 7.402344 C 18.683594 7.199219 18.664062 7.007812 18.660156 6.84375 C 18.652344 6.746094 18.652344 6.660156 18.65625 6.582031 C 18.351562 6.695312 18.054688 6.828125 17.769531 6.992188 C 17.765625 6.992188 17.765625 6.992188 17.765625 6.992188 C 17.707031 7.199219 17.667969 7.410156 17.644531 7.625 C 17.789062 7.59375 17.929688 7.558594 18.066406 7.527344 C 18.273438 7.476562 18.476562 7.441406 18.679688 7.402344 Z M 19.472656 16.488281 C 19.386719 15.644531 19.199219 14.804688 19.089844 13.953125 C 18.992188 13.671875 18.894531 13.441406 18.800781 13.214844 C 18.707031 13.304688 18.699219 13.539062 18.683594 13.722656 C 18.664062 14.011719 18.660156 14.300781 18.667969 14.589844 C 18.6875 14.996094 18.695312 15.433594 18.808594 15.824219 C 18.925781 16.210938 19.179688 16.355469 19.472656 16.488281 Z M 20.105469 7.1875 C 20.109375 6.761719 20.027344 6.441406 20.027344 6.242188 C 20.027344 6.234375 20.027344 6.230469 20.027344 6.226562 C 19.675781 6.28125 19.332031 6.359375 18.996094 6.464844 C 19.015625 6.554688 19.035156 6.660156 19.058594 6.796875 C 19.082031 6.933594 19.117188 7.109375 19.121094 7.324219 C 19.234375 7.308594 19.347656 7.289062 19.457031 7.269531 C 19.675781 7.242188 19.890625 7.210938 20.105469 7.1875 Z M 23.847656 35.839844 C 23.75 35.574219 23.640625 35.304688 23.5 35.023438 C 23.140625 34.28125 22.59375 33.492188 21.738281 32.855469 C 21.628906 32.785156 21.519531 32.710938 21.402344 32.632812 C 21.347656 32.59375 21.285156 32.5625 21.226562 32.527344 C 21.109375 32.464844 20.996094 32.402344 20.878906 32.339844 L 20.695312 32.238281 L 20.601562 32.1875 L 20.554688 32.160156 L 20.53125 32.144531 C 20.527344 32.140625 20.535156 32.128906 20.539062 32.125 C 20.601562 32 20.664062 31.871094 20.726562 31.742188 C 20.789062 31.621094 20.851562 31.5 20.910156 31.375 C 20.949219 31.304688 20.988281 31.238281 21.023438 31.164062 C 21.058594 31.09375 21.105469 31.019531 21.136719 30.953125 L 21.210938 30.796875 C 21.21875 30.777344 21.21875 30.765625 21.226562 30.75 C 21.230469 30.734375 21.195312 30.746094 21.183594 30.742188 C 21.085938 30.75 20.988281 30.753906 20.886719 30.761719 C 20.566406 30.808594 20.234375 30.875 19.890625 30.996094 C 19.785156 31.03125 19.675781 31.066406 19.5625 31.109375 C 20.625 33.070312 21.640625 35.28125 23.847656 35.839844 Z M 24.046875 2.679688 C 23.9375 2.679688 23.824219 2.683594 23.710938 2.6875 C 21.773438 2.78125 19.449219 3.980469 18.3125 5.769531 C 20.007812 5.136719 21.945312 5.136719 23.71875 5.222656 C 23.828125 5.226562 23.9375 5.234375 24.046875 5.238281 C 24.039062 4.75 24 4.316406 23.988281 3.953125 C 23.972656 3.503906 23.980469 3.148438 24.019531 2.875 C 24.03125 2.804688 24.039062 2.738281 24.046875 2.679688 Z M 24.265625 37.148438 C 24.253906 37.109375 24.242188 37.066406 24.230469 37.023438 C 24.191406 36.875 24.148438 36.726562 24.097656 36.566406 C 21.378906 36.117188 20.207031 33.640625 18.9375 31.335938 L 18.878906 31.359375 L 18.597656 31.453125 C 18.414062 31.515625 18.226562 31.582031 18.042969 31.644531 L 17.902344 31.691406 C 17.886719 31.664062 17.894531 31.597656 17.890625 31.554688 L 17.882812 31.253906 C 17.875 30.929688 17.867188 30.597656 17.859375 30.261719 C 17.855469 29.835938 17.847656 29.398438 17.859375 28.945312 C 17.867188 28.652344 17.878906 28.351562 17.898438 28.046875 C 17.496094 27.269531 17.125 26.472656 16.824219 25.648438 C 15.105469 26.421875 13.210938 26.984375 11.71875 27.777344 C 11.316406 27.988281 10.980469 28.226562 10.683594 28.488281 C 11.671875 30.300781 12.539062 31.824219 13.117188 33.160156 C 13.226562 33.398438 13.324219 33.628906 13.414062 33.851562 C 13.386719 33.378906 13.359375 32.941406 13.3125 32.554688 C 13.277344 32.230469 13.253906 31.929688 13.191406 31.667969 C 13.136719 31.398438 13.109375 31.148438 13.042969 30.929688 C 12.980469 30.710938 12.925781 30.515625 12.871094 30.339844 C 12.847656 30.246094 12.828125 30.160156 12.804688 30.085938 C 12.773438 30.007812 12.746094 29.9375 12.71875 29.871094 C 12.515625 29.335938 12.453125 29.082031 12.507812 29.050781 C 12.558594 29.019531 12.71875 29.21875 13.03125 29.730469 C 13.070312 29.792969 13.113281 29.859375 13.15625 29.9375 C 13.195312 30.011719 13.226562 30.097656 13.265625 30.183594 C 13.339844 30.363281 13.421875 30.5625 13.511719 30.789062 C 13.605469 31.011719 13.65625 31.269531 13.738281 31.546875 C 13.820312 31.824219 13.867188 32.136719 13.925781 32.46875 C 14.046875 33.140625 14.109375 33.910156 14.195312 34.78125 C 14.25 35.210938 14.277344 35.675781 14.363281 36.15625 C 14.398438 36.398438 14.4375 36.636719 14.472656 36.90625 C 14.507812 37.175781 14.539062 37.453125 14.578125 37.738281 C 14.679688 38.875 14.683594 40.136719 14.621094 41.511719 C 14.578125 42.648438 14.484375 43.867188 14.4375 45.171875 C 16.019531 45.15625 17.574219 45.449219 19.15625 45.488281 C 20.835938 45.53125 22.519531 45.582031 24.199219 45.625 C 24.210938 45.082031 24.214844 44.542969 24.222656 44.015625 C 24.214844 43.273438 24.210938 42.546875 24.207031 41.84375 C 24.210938 41.132812 24.210938 40.441406 24.214844 39.761719 C 24.222656 39.316406 24.25 38.878906 24.273438 38.445312 C 24.261719 38.03125 24.257812 37.597656 24.265625 37.148438 Z M 24.308594 35.386719 C 24.3125 35.011719 24.304688 34.640625 24.269531 34.257812 C 24.207031 33.457031 23.996094 32.65625 23.609375 31.855469 C 23.214844 31.046875 22.691406 30.234375 22.125 29.375 C 21.558594 28.511719 20.945312 27.601562 20.417969 26.550781 C 20.160156 26.023438 19.929688 25.453125 19.761719 24.84375 C 19.722656 24.703125 19.695312 24.554688 19.667969 24.410156 C 19.34375 24.988281 19.136719 25.632812 19.003906 26.269531 C 18.8125 27.1875 18.742188 28.09375 18.722656 28.96875 C 18.707031 29.402344 18.710938 29.832031 18.710938 30.25 C 18.714844 30.332031 18.714844 30.414062 18.714844 30.496094 L 18.714844 30.507812 C 18.710938 30.523438 18.71875 30.515625 18.726562 30.515625 L 18.734375 30.515625 L 18.804688 30.492188 C 18.898438 30.457031 18.988281 30.425781 19.082031 30.390625 C 19.269531 30.328125 19.449219 30.261719 19.640625 30.207031 C 20.015625 30.078125 20.410156 30 20.804688 29.949219 C 20.898438 29.941406 21 29.941406 21.097656 29.9375 L 21.3125 29.929688 C 21.394531 29.933594 21.472656 29.941406 21.554688 29.949219 C 21.714844 29.964844 21.878906 29.980469 22.035156 29.992188 L 22.273438 30.015625 L 22.332031 30.023438 C 22.339844 30.027344 22.355469 30.023438 22.355469 30.03125 L 22.34375 30.054688 L 22.304688 30.167969 C 22.191406 30.464844 22.09375 30.761719 21.96875 31.039062 C 21.917969 31.132812 21.867188 31.230469 21.820312 31.324219 C 21.78125 31.398438 21.738281 31.46875 21.703125 31.539062 C 21.652344 31.625 21.601562 31.714844 21.554688 31.796875 L 21.53125 31.832031 C 21.535156 31.84375 21.546875 31.84375 21.554688 31.851562 L 21.601562 31.882812 C 21.667969 31.921875 21.738281 31.957031 21.800781 32.003906 C 21.929688 32.09375 22.054688 32.183594 22.175781 32.273438 C 23.132812 33.023438 23.710938 33.941406 24.0625 34.761719 C 24.15625 34.972656 24.238281 35.183594 24.308594 35.386719 Z M 25.589844 9.90625 C 25.6875 9.863281 25.777344 9.8125 25.867188 9.753906 C 25.363281 9.765625 24.859375 9.769531 24.355469 9.769531 C 22.738281 9.769531 21.121094 9.804688 19.507812 9.734375 C 19.316406 9.726562 19.121094 9.714844 18.921875 9.703125 C 18.882812 9.71875 18.84375 9.734375 18.816406 9.746094 L 18.828125 9.804688 L 18.832031 9.832031 C 18.835938 9.84375 18.839844 9.847656 18.84375 9.898438 C 18.90625 10.496094 18.832031 11.109375 18.984375 11.664062 C 19.035156 11.800781 19.066406 11.9375 19.148438 12.089844 C 19.152344 12.101562 19.15625 12.109375 19.15625 12.113281 C 19.207031 12.117188 19.253906 12.121094 19.300781 12.121094 C 19.433594 12.121094 19.53125 12.171875 19.601562 12.246094 C 19.765625 12.007812 19.945312 11.777344 20.148438 11.546875 C 20.265625 11.414062 20.378906 11.289062 20.527344 11.152344 C 20.5625 11.117188 20.617188 11.078125 20.660156 11.042969 L 20.8125 10.960938 C 20.90625 10.910156 21.019531 10.84375 21.109375 10.820312 C 21.300781 10.757812 21.496094 10.699219 21.679688 10.667969 C 21.871094 10.625 22.054688 10.605469 22.242188 10.578125 C 22.605469 10.535156 22.980469 10.488281 23.359375 10.445312 C 23.550781 10.425781 23.707031 10.386719 23.90625 10.351562 C 24.109375 10.316406 24.304688 10.277344 24.492188 10.238281 C 24.871094 10.15625 25.253906 10.070312 25.589844 9.90625 Z M 30.128906 6.007812 C 28.859375 4.101562 26.597656 2.792969 24.328125 2.6875 C 24.328125 2.75 24.328125 2.820312 24.328125 2.890625 C 24.332031 3.148438 24.355469 3.488281 24.394531 3.925781 C 24.421875 4.289062 24.476562 4.734375 24.484375 5.261719 C 26.390625 5.371094 28.277344 5.554688 30.128906 6.007812 Z M 28.664062 14.375 L 28.609375 14.226562 C 28.570312 14.121094 28.535156 14.003906 28.492188 13.925781 C 28.40625 13.753906 28.324219 13.578125 28.238281 13.398438 C 28.183594 13.3125 28.128906 13.222656 28.078125 13.136719 C 27.875 12.835938 27.644531 12.523438 27.394531 12.1875 C 27.152344 11.851562 26.894531 11.484375 26.675781 11.058594 C 26.578125 10.871094 26.492188 10.664062 26.421875 10.441406 C 26.265625 10.546875 26.109375 10.640625 25.949219 10.710938 C 25.515625 10.917969 25.078125 11.007812 24.671875 11.101562 C 24.460938 11.140625 24.265625 11.179688 24.078125 11.214844 C 23.890625 11.242188 23.664062 11.296875 23.472656 11.3125 C 23.089844 11.355469 22.714844 11.394531 22.351562 11.433594 C 22.003906 11.476562 21.667969 11.53125 21.398438 11.625 C 21.316406 11.640625 21.285156 11.675781 21.226562 11.699219 L 21.148438 11.734375 L 21.085938 11.785156 C 20.984375 11.875 20.875 11.992188 20.769531 12.105469 C 20.5625 12.339844 20.371094 12.578125 20.199219 12.816406 L 20.136719 12.90625 L 20.105469 12.953125 L 20.082031 12.992188 L 20.050781 13.039062 L 19.9375 13.234375 C 19.925781 13.253906 19.914062 13.269531 19.90625 13.289062 C 19.949219 14.300781 20.109375 15.25 20.339844 16.246094 C 20.488281 16.882812 20.328125 17.546875 20.410156 18.1875 C 20.605469 19.746094 21.808594 21.1875 23.210938 21.847656 C 25.078125 22.734375 27.140625 21.410156 28.066406 19.65625 C 28.820312 18.222656 28.460938 16.394531 28.628906 14.835938 C 28.644531 14.707031 28.652344 14.546875 28.664062 14.375 Z M 28.921875 22.699219 L 28.953125 22.695312 C 28.566406 22.125 28.421875 21.445312 28.300781 20.765625 C 28.277344 20.792969 28.253906 20.820312 28.230469 20.851562 C 27.464844 21.636719 26.578125 22.769531 25.441406 23.019531 C 23.871094 23.367188 22.253906 22.566406 21.125 21.40625 C 20.96875 21.992188 20.730469 22.503906 20.417969 22.957031 L 20.445312 22.957031 C 20.414062 23.527344 20.476562 24.082031 20.609375 24.621094 C 20.753906 25.152344 20.964844 25.667969 21.199219 26.160156 C 21.6875 27.140625 22.28125 28.03125 22.84375 28.898438 C 23.40625 29.765625 23.945312 30.609375 24.363281 31.488281 C 24.585938 31.953125 24.753906 32.433594 24.871094 32.910156 C 24.890625 32.855469 24.902344 32.808594 24.917969 32.75 C 25.019531 32.417969 25.113281 32.058594 25.273438 31.667969 C 25.578125 30.898438 26.019531 30.101562 26.542969 29.234375 C 27.058594 28.367188 27.664062 27.441406 28.183594 26.367188 C 28.703125 25.304688 29.109375 24.046875 28.921875 22.699219 Z M 29.949219 31.566406 C 29.894531 31.5625 29.84375 31.5625 29.789062 31.550781 C 29.660156 31.53125 29.527344 31.507812 29.394531 31.476562 C 29.265625 31.449219 29.132812 31.417969 29.003906 31.382812 C 28.871094 31.347656 28.746094 31.3125 28.613281 31.277344 C 28.535156 31.253906 28.449219 31.230469 28.371094 31.207031 C 28.3125 31.191406 28.308594 31.191406 28.289062 31.1875 C 28.265625 31.183594 28.28125 31.222656 28.277344 31.238281 L 28.285156 31.265625 C 28.289062 31.28125 28.289062 31.265625 28.304688 31.320312 C 28.335938 31.433594 28.40625 31.546875 28.460938 31.664062 C 28.652344 32.054688 28.855469 32.476562 29.101562 32.824219 C 28.878906 32.910156 28.691406 33.039062 28.503906 33.167969 C 28.359375 33.269531 28.21875 33.371094 28.0625 33.457031 C 27.851562 33.570312 27.632812 33.703125 27.417969 33.84375 C 27.199219 33.980469 26.980469 34.128906 26.765625 34.285156 C 26.65625 34.363281 26.550781 34.445312 26.445312 34.523438 L 26.316406 34.628906 C 26.316406 34.628906 26.3125 34.636719 26.300781 34.640625 C 26.296875 34.648438 26.265625 34.6875 26.265625 34.6875 L 26.203125 34.761719 C 25.902344 35.101562 25.667969 35.511719 25.496094 35.960938 C 26.546875 35.789062 27.597656 35.433594 28.347656 34.652344 C 29.179688 33.785156 29.621094 32.707031 29.949219 31.566406 Z M 30.167969 11.214844 C 30.226562 10.941406 30.238281 10.671875 30.214844 10.421875 C 30.191406 10.179688 30.132812 9.878906 30.078125 9.816406 C 30.054688 9.789062 30.046875 9.773438 29.972656 9.753906 C 29.039062 9.722656 28.105469 9.722656 27.171875 9.734375 C 27.238281 10.511719 27.679688 11.066406 28.109375 11.664062 C 28.34375 11.988281 28.59375 12.332031 28.8125 12.667969 C 28.859375 12.742188 28.929688 12.816406 28.972656 12.890625 L 29.015625 12.898438 C 29.015625 12.765625 29.105469 12.640625 29.195312 12.542969 C 29.203125 12.53125 29.167969 12.519531 29.171875 12.507812 C 29.203125 12.457031 29.253906 12.398438 29.289062 12.347656 C 29.332031 12.296875 29.378906 12.257812 29.425781 12.210938 C 29.597656 12.058594 29.753906 11.964844 29.851562 11.878906 L 29.914062 11.816406 C 29.929688 11.800781 29.941406 11.785156 29.957031 11.769531 C 29.984375 11.71875 30.019531 11.660156 30.046875 11.601562 C 30.101562 11.476562 30.144531 11.347656 30.167969 11.214844 Z M 30.707031 30.101562 C 30.804688 29.277344 30.785156 28.507812 30.742188 27.832031 C 30.6875 27.15625 30.609375 26.5625 30.507812 26.054688 C 30.3125 25.042969 30.035156 24.367188 29.816406 23.964844 C 29.789062 24.269531 29.738281 24.5625 29.667969 24.847656 C 29.507812 25.554688 29.230469 26.175781 28.957031 26.75 C 28.386719 27.890625 27.757812 28.820312 27.230469 29.664062 C 26.699219 30.503906 26.253906 31.257812 25.949219 31.953125 C 25.792969 32.289062 25.679688 32.644531 25.566406 32.964844 C 25.453125 33.289062 25.347656 33.589844 25.257812 33.867188 C 25.195312 34.070312 25.136719 34.253906 25.089844 34.433594 C 25.09375 34.574219 25.101562 34.71875 25.105469 34.855469 C 25.25 34.625 25.40625 34.40625 25.578125 34.210938 L 25.695312 34.078125 C 25.730469 34.035156 25.71875 34.050781 25.746094 34.023438 C 25.835938 33.945312 25.878906 33.914062 25.945312 33.867188 C 26.0625 33.773438 26.175781 33.691406 26.292969 33.609375 C 26.519531 33.449219 26.75 33.292969 26.980469 33.152344 C 27.214844 33.003906 27.445312 32.867188 27.691406 32.738281 L 27.875 32.644531 L 27.972656 32.605469 C 28 32.59375 28.039062 32.574219 28.042969 32.574219 C 28.050781 32.574219 28.066406 32.566406 28.078125 32.566406 C 28.082031 32.570312 28.089844 32.570312 28.09375 32.574219 L 28.070312 32.527344 C 28.066406 32.511719 28.082031 32.539062 28.023438 32.449219 C 27.945312 32.3125 27.867188 32.175781 27.789062 32.039062 C 27.714844 31.886719 27.632812 31.746094 27.585938 31.574219 L 27.527344 31.40625 C 27.511719 31.339844 27.507812 31.277344 27.503906 31.214844 C 27.492188 31.089844 27.484375 30.964844 27.476562 30.839844 C 27.46875 30.714844 27.480469 30.59375 27.484375 30.46875 L 27.492188 30.289062 L 27.492188 30.242188 C 27.5 30.230469 27.519531 30.242188 27.53125 30.242188 L 27.621094 30.257812 C 27.84375 30.304688 28.070312 30.332031 28.289062 30.40625 C 28.597656 30.5 28.898438 30.585938 29.195312 30.675781 C 29.316406 30.714844 29.4375 30.746094 29.554688 30.773438 C 29.671875 30.804688 29.789062 30.828125 29.902344 30.847656 C 30.019531 30.871094 30.132812 30.886719 30.242188 30.894531 L 30.410156 30.90625 C 30.457031 30.914062 30.453125 30.910156 30.480469 30.910156 C 30.511719 30.90625 30.5625 30.925781 30.5625 30.875 L 30.585938 30.796875 L 30.601562 30.726562 C 30.644531 30.515625 30.6875 30.3125 30.707031 30.101562 Z M 30.714844 7.730469 C 30.796875 7.757812 30.878906 7.785156 30.960938 7.8125 C 30.890625 7.558594 30.804688 7.3125 30.707031 7.074219 C 30.699219 7.074219 30.691406 7.074219 30.6875 7.070312 C 28.421875 6.40625 26.070312 6.191406 23.71875 6.105469 C 22.621094 6.0625 21.453125 6.027344 20.332031 6.179688 C 20.371094 6.277344 20.421875 6.414062 20.46875 6.589844 C 20.488281 6.6875 20.511719 6.792969 20.53125 6.914062 C 20.535156 6.984375 20.539062 7.0625 20.539062 7.140625 C 20.625 7.132812 20.710938 7.121094 20.796875 7.117188 C 21.230469 7.085938 21.660156 7.054688 22.066406 7.042969 C 22.875 7.007812 23.652344 6.972656 24.390625 6.953125 C 25.867188 6.917969 27.199219 6.96875 28.371094 7.144531 C 28.664062 7.179688 28.945312 7.242188 29.21875 7.308594 C 29.488281 7.371094 29.753906 7.425781 30.003906 7.492188 C 30.25 7.574219 30.484375 7.65625 30.714844 7.730469 Z M 31.152344 26.769531 C 31.347656 26.210938 31.550781 25.664062 31.851562 25.152344 C 31.214844 24.785156 30.617188 24.371094 30.078125 23.898438 C 30.371094 24.300781 30.710938 24.96875 30.964844 25.949219 C 31.035156 26.199219 31.097656 26.472656 31.152344 26.769531 Z M 32.382812 9.039062 C 32.339844 9.023438 32.300781 9.003906 32.257812 8.984375 C 31.929688 8.832031 31.546875 8.710938 31.152344 8.554688 C 30.953125 8.472656 30.734375 8.417969 30.515625 8.351562 C 30.296875 8.289062 30.066406 8.222656 29.828125 8.15625 C 29.585938 8.097656 29.335938 8.054688 29.078125 8.003906 C 28.824219 7.953125 28.558594 7.898438 28.273438 7.875 C 27.152344 7.730469 25.867188 7.710938 24.417969 7.765625 C 23.6875 7.796875 22.921875 7.84375 22.105469 7.886719 C 21.691406 7.90625 21.289062 7.941406 20.867188 7.96875 C 20.449219 8.003906 20.023438 8.0625 19.585938 8.125 C 19.15625 8.203125 18.707031 8.269531 18.257812 8.382812 C 17.800781 8.488281 17.355469 8.582031 16.9375 8.765625 C 16.894531 8.785156 16.855469 8.804688 16.8125 8.824219 C 17.070312 8.8125 17.304688 8.8125 17.496094 8.8125 C 19.59375 8.789062 21.699219 8.886719 23.800781 8.886719 C 25.863281 8.886719 27.933594 8.824219 29.996094 8.878906 C 30.726562 8.894531 31.582031 8.898438 32.382812 9.039062 Z M 33.308594 11.503906 C 35.019531 10.417969 32.019531 9.886719 31.386719 9.832031 C 31.199219 9.816406 31.003906 9.804688 30.816406 9.792969 C 30.824219 9.820312 30.832031 9.847656 30.839844 9.875 C 30.882812 10.03125 30.90625 10.167969 30.9375 10.332031 C 30.980469 10.65625 30.980469 11 30.917969 11.359375 C 30.886719 11.539062 30.835938 11.722656 30.757812 11.910156 C 30.753906 11.921875 30.746094 11.9375 30.738281 11.953125 C 31.636719 11.90625 32.613281 11.945312 33.308594 11.503906 Z M 38.828125 28.707031 L 38.886719 28.730469 C 38.671875 28.355469 38.363281 28.019531 37.882812 27.726562 C 36.179688 26.695312 34.195312 26.332031 32.429688 25.464844 C 31.980469 26.230469 31.757812 27.09375 31.425781 27.914062 C 31.402344 27.972656 31.371094 28.015625 31.328125 28.046875 C 31.390625 28.683594 31.421875 29.386719 31.355469 30.171875 C 31.339844 30.398438 31.304688 30.628906 31.257812 30.871094 C 31.253906 30.902344 31.25 30.921875 31.238281 30.964844 L 31.203125 31.105469 C 31.175781 31.199219 31.148438 31.292969 31.121094 31.386719 L 31.085938 31.53125 L 31.066406 31.585938 L 30.976562 31.585938 C 30.878906 31.59375 30.773438 31.597656 30.675781 31.597656 C 30.652344 31.597656 30.632812 31.601562 30.609375 31.601562 C 30.609375 31.628906 30.605469 31.65625 30.597656 31.6875 C 30.191406 33.109375 29.609375 34.464844 28.457031 35.433594 C 27.5625 36.1875 26.425781 36.503906 25.289062 36.65625 C 25.210938 37.027344 25.175781 37.414062 25.164062 37.847656 C 25.140625 38.472656 25.089844 39.113281 25.082031 39.78125 C 25.078125 40.449219 25.078125 41.132812 25.078125 41.835938 C 25.085938 42.542969 25.089844 43.265625 25.101562 44.011719 C 25.089844 44.546875 25.085938 45.097656 25.078125 45.652344 C 28.253906 45.742188 31.433594 45.824219 34.613281 45.847656 C 34.785156 45.851562 34.957031 45.851562 35.128906 45.851562 C 35.222656 44.601562 35.230469 43.425781 35.214844 42.332031 C 35.191406 40.976562 35.167969 39.75 35.148438 38.648438 C 35.132812 37.550781 35.175781 36.527344 35.300781 35.648438 C 35.433594 34.769531 35.601562 34.015625 35.769531 33.378906 C 36.109375 32.09375 36.398438 31.242188 36.589844 30.691406 C 36.777344 30.148438 36.894531 29.917969 36.953125 29.933594 C 37.011719 29.945312 37.007812 30.203125 36.917969 30.777344 C 36.835938 31.351562 36.632812 32.238281 36.375 33.515625 C 36.304688 33.871094 36.234375 34.257812 36.167969 34.675781 C 36.332031 34.234375 36.53125 33.761719 36.765625 33.246094 C 37.054688 32.621094 37.390625 31.941406 37.753906 31.195312 C 38.117188 30.445312 38.503906 29.625 38.828125 28.707031 Z M 41.332031 45.976562 C 41.296875 45.851562 41.265625 45.71875 41.234375 45.574219 C 41.175781 45.363281 41.136719 45.125 41.097656 44.867188 C 41.054688 44.609375 41.011719 44.324219 40.964844 44.019531 C 40.921875 43.714844 40.875 43.386719 40.828125 43.03125 C 40.769531 42.683594 40.707031 42.308594 40.640625 41.910156 C 40.472656 41.117188 40.257812 40.222656 40.027344 39.21875 C 39.53125 37.382812 38.863281 35.179688 38.023438 32.566406 C 37.839844 32.929688 37.664062 33.273438 37.5 33.601562 C 36.890625 34.804688 36.507812 35.765625 36.273438 36.515625 C 36.101562 37.066406 36.007812 37.492188 35.941406 37.824219 C 35.941406 38.085938 35.949219 38.355469 35.957031 38.632812 C 35.992188 39.738281 36.03125 40.960938 36.078125 42.316406 C 36.101562 43.402344 36.105469 44.589844 36.015625 45.863281 C 37.015625 45.875 38.015625 45.898438 39.015625 45.949219 C 39.777344 45.984375 40.558594 46.03125 41.332031 45.976562 Z M 43.15625 45.589844 C 42.507812 42.378906 42.632812 39.007812 41.609375 35.878906 C 41.089844 34.289062 40.328125 32.808594 39.738281 31.25 C 39.554688 30.765625 39.445312 30.296875 39.328125 29.855469 C 39.0625 30.480469 38.789062 31.054688 38.523438 31.578125 C 38.453125 31.726562 38.378906 31.867188 38.304688 32.007812 C 39.210938 34.808594 39.914062 37.160156 40.417969 39.121094 C 40.644531 40.132812 40.847656 41.039062 41 41.84375 C 41.058594 42.25 41.121094 42.632812 41.164062 42.988281 C 41.203125 43.34375 41.238281 43.675781 41.273438 43.980469 C 41.308594 44.285156 41.34375 44.566406 41.371094 44.828125 C 41.402344 45.085938 41.429688 45.320312 41.472656 45.527344 C 41.503906 45.683594 41.527344 45.828125 41.550781 45.957031 C 42.101562 45.90625 42.640625 45.792969 43.15625 45.589844 Z M 44.050781 45.78125 C 44.105469 45.949219 44.054688 46.136719 43.847656 46.242188 C 41.527344 47.339844 38.800781 46.75 36.332031 46.742188 C 36.199219 46.742188 36.066406 46.738281 35.941406 46.738281 C 35.933594 46.769531 35.929688 46.804688 35.929688 46.839844 L 35.054688 46.742188 C 35.054688 46.734375 35.054688 46.730469 35.058594 46.730469 C 31.855469 46.703125 28.652344 46.632812 25.453125 46.542969 C 23.542969 46.488281 21.632812 46.433594 19.726562 46.386719 C 18.101562 46.347656 16.472656 46.007812 14.847656 46.039062 C 13.378906 46.066406 11.867188 46.597656 10.398438 46.429688 C 8.820312 46.25 7.46875 45.980469 5.902344 46.429688 C 5.636719 46.507812 5.445312 46.339844 5.382812 46.132812 C 5.296875 46.035156 5.253906 45.902344 5.289062 45.742188 C 5.695312 44.125 6.054688 42.496094 6.320312 40.847656 C 6.582031 39.238281 6.671875 37.578125 7.097656 36 C 7.492188 34.550781 7.886719 33.152344 8.175781 31.675781 C 8.386719 30.589844 8.652344 29.347656 9.382812 28.476562 C 12.15625 25.171875 19.710938 25.832031 20.394531 20.671875 C 20.402344 20.628906 20.414062 20.589844 20.425781 20.554688 C 20.394531 20.507812 20.359375 20.460938 20.324219 20.410156 C 19.707031 19.4375 19.554688 18.578125 19.527344 17.46875 C 19.488281 17.460938 19.449219 17.449219 19.410156 17.425781 C 18.644531 17.03125 18.054688 16.765625 17.914062 15.824219 C 17.824219 15.1875 17.75 14.527344 17.796875 13.875 C 17.824219 13.535156 17.898438 13.175781 18.03125 12.878906 C 16.179688 12.589844 13.449219 11.75 13.925781 10.109375 C 13.949219 10.042969 13.972656 9.980469 14 9.921875 L 13.980469 9.90625 C 14.003906 9.878906 14.027344 9.859375 14.050781 9.832031 C 14.167969 9.636719 14.335938 9.476562 14.542969 9.347656 C 14.75 9.152344 14.96875 8.957031 15.195312 8.777344 C 15.625 8.433594 16.113281 8.15625 16.605469 7.957031 C 16.652344 7.933594 16.699219 7.917969 16.75 7.898438 C 16.851562 4.605469 20.597656 1.777344 23.710938 1.808594 C 27.390625 1.839844 31.214844 4.25 31.921875 8.074219 C 31.929688 8.121094 31.929688 8.164062 31.925781 8.207031 C 32.128906 8.292969 32.316406 8.378906 32.492188 8.472656 C 32.824219 8.652344 33.128906 8.816406 33.40625 8.960938 C 33.679688 9.144531 33.921875 9.320312 34.101562 9.527344 C 34.148438 9.582031 34.191406 9.628906 34.234375 9.679688 C 34.269531 9.734375 34.300781 9.792969 34.332031 9.84375 C 34.402344 9.949219 34.4375 10.058594 34.472656 10.160156 C 34.484375 10.191406 34.484375 10.214844 34.492188 10.246094 C 34.773438 10.757812 34.78125 11.390625 34.261719 11.871094 C 33.3125 12.75 32.023438 12.671875 30.804688 12.792969 C 30.824219 12.839844 30.84375 12.875 30.855469 12.921875 C 31.421875 14.730469 31.128906 16.640625 29.492188 17.648438 C 29.460938 17.664062 29.425781 17.679688 29.390625 17.691406 C 29.386719 17.839844 29.378906 17.984375 29.363281 18.128906 C 29.308594 18.699219 29.199219 19.222656 28.996094 19.703125 C 28.996094 19.707031 29 19.714844 29 19.71875 C 29.148438 20.425781 29.164062 21.359375 29.550781 21.984375 C 30.078125 22.832031 30.851562 23.492188 31.683594 24.019531 C 32.664062 24.644531 33.722656 25.035156 34.808594 25.425781 C 36.476562 26.023438 38.652344 26.648438 39.707031 28.210938 C 40.023438 28.679688 40.121094 29.15625 40.21875 29.71875 C 40.355469 30.503906 40.644531 31.195312 40.964844 31.929688 C 41.5625 33.316406 42.230469 34.707031 42.609375 36.175781 C 43.398438 39.273438 43.378906 42.480469 44.050781 45.59375 C 44.0625 45.660156 44.0625 45.722656 44.050781 45.78125 Z M 29.484375 15.191406 C 29.472656 15.402344 29.457031 15.617188 29.449219 15.828125 C 29.441406 16.085938 29.4375 16.34375 29.429688 16.601562 C 30.390625 15.757812 30.199219 14.585938 30.03125 13.3125 C 29.867188 12.054688 29.484375 15.578125 29.484375 15.191406 " fill-opacity="1" fill-rule="nonzero"/></g><path fill="#754c24" d="M 33.148438 44.222656 C 34.898438 42.691406 34.097656 39.457031 34.066406 37.429688 C 34.066406 37.230469 33.917969 37.125 33.738281 37.101562 C 31.675781 36.839844 29.628906 36.863281 27.554688 36.953125 C 27.429688 36.960938 27.34375 37.023438 27.292969 37.109375 C 25.828125 37.585938 25.980469 39.015625 26.054688 40.523438 C 26.136719 42.171875 26.363281 43.898438 28.148438 44.523438 C 29.5625 45.015625 31.90625 45.3125 33.148438 44.222656 Z M 38.886719 28.730469 L 38.828125 28.707031 C 38.503906 29.625 38.117188 30.445312 37.753906 31.195312 C 37.390625 31.941406 37.054688 32.621094 36.765625 33.246094 C 36.53125 33.761719 36.332031 34.234375 36.167969 34.675781 C 36.234375 34.257812 36.304688 33.871094 36.375 33.515625 C 36.632812 32.238281 36.835938 31.351562 36.917969 30.777344 C 37.007812 30.203125 37.011719 29.945312 36.953125 29.933594 C 36.894531 29.917969 36.777344 30.148438 36.589844 30.691406 C 36.398438 31.242188 36.109375 32.09375 35.769531 33.378906 C 35.601562 34.015625 35.433594 34.769531 35.300781 35.648438 C 35.175781 36.527344 35.132812 37.550781 35.148438 38.648438 C 35.167969 39.75 35.191406 40.976562 35.214844 42.332031 C 35.230469 43.425781 35.222656 44.601562 35.128906 45.851562 C 34.957031 45.851562 34.785156 45.851562 34.613281 45.847656 C 31.433594 45.824219 28.253906 45.742188 25.078125 45.652344 C 25.085938 45.097656 25.089844 44.546875 25.101562 44.011719 C 25.089844 43.265625 25.085938 42.542969 25.078125 41.835938 C 25.078125 41.132812 25.078125 40.449219 25.082031 39.78125 C 25.089844 39.113281 25.140625 38.472656 25.164062 37.847656 C 25.175781 37.414062 25.210938 37.027344 25.289062 36.65625 C 26.425781 36.503906 27.5625 36.1875 28.457031 35.433594 C 29.609375 34.464844 30.191406 33.109375 30.597656 31.6875 C 30.605469 31.65625 30.609375 31.628906 30.609375 31.601562 C 30.632812 31.601562 30.652344 31.597656 30.675781 31.597656 C 30.773438 31.597656 30.878906 31.59375 30.976562 31.585938 L 31.066406 31.585938 L 31.085938 31.53125 L 31.121094 31.386719 C 31.148438 31.292969 31.175781 31.199219 31.203125 31.105469 L 31.238281 30.964844 C 31.25 30.921875 31.253906 30.902344 31.257812 30.871094 C 31.304688 30.628906 31.339844 30.398438 31.355469 30.171875 C 31.421875 29.386719 31.390625 28.683594 31.328125 28.046875 C 31.371094 28.015625 31.402344 27.972656 31.425781 27.914062 C 31.757812 27.09375 31.980469 26.230469 32.429688 25.464844 C 34.195312 26.332031 36.179688 26.695312 37.882812 27.726562 C 38.363281 28.019531 38.671875 28.355469 38.886719 28.730469 " fill-opacity="1" fill-rule="nonzero"/><path fill="#000000" d="M 29.015625 44.097656 C 29.015625 42.441406 29.015625 40.929688 29.015625 39.375 C 28.28125 39.230469 27.523438 38.980469 26.738281 38.683594 C 26.53125 39.441406 26.703125 40.441406 26.757812 41.171875 C 26.878906 42.746094 27.535156 43.757812 29.015625 44.097656 Z M 33.097656 37.691406 C 31.386719 37.523438 29.683594 37.53125 27.964844 37.597656 C 27.933594 37.621094 27.886719 37.640625 27.839844 37.648438 C 27.472656 37.71875 27.21875 37.878906 27.035156 38.09375 C 29.222656 38.910156 31.21875 39.429688 33.097656 37.691406 Z M 31.066406 44.242188 C 31.007812 42.652344 30.875 41.066406 30.878906 39.476562 C 30.457031 39.523438 30.03125 39.515625 29.597656 39.464844 C 29.597656 41.023438 29.597656 42.527344 29.597656 44.195312 C 30.0625 44.25 30.574219 44.277344 31.066406 44.242188 Z M 33.417969 42.414062 C 33.625 41.039062 33.5 39.65625 33.4375 38.273438 C 32.816406 38.824219 32.183594 39.167969 31.535156 39.347656 C 31.523438 40.949219 31.660156 42.546875 31.71875 44.144531 C 32.566406 43.945312 33.261719 43.460938 33.417969 42.414062 Z M 34.066406 37.429688 C 34.097656 39.457031 34.898438 42.691406 33.148438 44.222656 C 31.90625 45.3125 29.5625 45.015625 28.148438 44.523438 C 26.363281 43.898438 26.136719 42.171875 26.054688 40.523438 C 25.980469 39.015625 25.828125 37.585938 27.292969 37.109375 C 27.34375 37.023438 27.429688 36.960938 27.554688 36.953125 C 29.628906 36.863281 31.675781 36.839844 33.738281 37.101562 C 33.917969 37.125 34.066406 37.230469 34.066406 37.429688 " fill-opacity="1" fill-rule="nonzero"/><path fill="#603813" d="M 33.4375 38.273438 C 33.5 39.65625 33.625 41.039062 33.417969 42.414062 C 33.261719 43.460938 32.566406 43.945312 31.71875 44.144531 C 31.660156 42.546875 31.523438 40.949219 31.535156 39.347656 C 32.183594 39.167969 32.816406 38.824219 33.4375 38.273438 " fill-opacity="1" fill-rule="nonzero"/><path fill="#754c24" d="M 31.386719 9.832031 C 32.019531 9.886719 35.019531 10.417969 33.308594 11.503906 C 32.613281 11.945312 31.636719 11.90625 30.738281 11.953125 C 30.746094 11.9375 30.753906 11.921875 30.757812 11.910156 C 30.835938 11.722656 30.886719 11.539062 30.917969 11.359375 C 30.980469 11 30.980469 10.65625 30.9375 10.332031 C 30.90625 10.167969 30.882812 10.03125 30.839844 9.875 C 30.832031 9.847656 30.824219 9.820312 30.816406 9.792969 C 31.003906 9.804688 31.199219 9.816406 31.386719 9.832031 " fill-opacity="1" fill-rule="nonzero"/><path fill="#603813" d="M 30.878906 39.476562 C 30.875 41.066406 31.007812 42.652344 31.066406 44.242188 C 30.574219 44.277344 30.0625 44.25 29.597656 44.195312 C 29.597656 42.527344 29.597656 41.023438 29.597656 39.464844 C 30.03125 39.515625 30.457031 39.523438 30.878906 39.476562 " fill-opacity="1" fill-rule="nonzero"/><path fill="#603813" d="M 27.964844 37.597656 C 29.683594 37.53125 31.386719 37.523438 33.097656 37.691406 C 31.21875 39.429688 29.222656 38.910156 27.035156 38.09375 C 27.21875 37.878906 27.472656 37.71875 27.839844 37.648438 C 27.886719 37.640625 27.933594 37.621094 27.964844 37.597656 " fill-opacity="1" fill-rule="nonzero"/><path fill="#51362d" d="M 30.214844 10.421875 C 30.238281 10.671875 30.226562 10.941406 30.167969 11.214844 C 30.144531 11.347656 30.101562 11.476562 30.046875 11.601562 C 30.019531 11.660156 29.984375 11.71875 29.957031 11.769531 C 29.941406 11.785156 29.929688 11.800781 29.914062 11.816406 L 29.851562 11.878906 C 29.753906 11.964844 29.597656 12.058594 29.425781 12.210938 C 29.378906 12.257812 29.332031 12.296875 29.289062 12.347656 C 29.253906 12.398438 29.203125 12.457031 29.171875 12.507812 C 29.167969 12.519531 29.203125 12.53125 29.195312 12.542969 C 29.105469 12.640625 29.015625 12.765625 29.015625 12.898438 L 28.972656 12.890625 C 28.929688 12.816406 28.859375 12.742188 28.8125 12.667969 C 28.59375 12.332031 28.34375 11.988281 28.109375 11.664062 C 27.679688 11.066406 27.238281 10.511719 27.171875 9.734375 C 28.105469 9.722656 29.039062 9.722656 29.972656 9.753906 C 30.046875 9.773438 30.054688 9.789062 30.078125 9.816406 C 30.132812 9.878906 30.191406 10.179688 30.214844 10.421875 " fill-opacity="1" fill-rule="nonzero"/><path fill="#ffcca9" d="M 30.03125 13.3125 C 30.199219 14.585938 30.390625 15.757812 29.429688 16.601562 C 29.4375 16.34375 29.441406 16.085938 29.449219 15.828125 C 29.457031 15.617188 29.472656 15.402344 29.484375 15.191406 C 29.484375 15.578125 29.867188 12.054688 30.03125 13.3125 " fill-opacity="1" fill-rule="nonzero"/><path fill="#603813" d="M 29.015625 39.375 C 29.015625 40.929688 29.015625 42.441406 29.015625 44.097656 C 27.535156 43.757812 26.878906 42.746094 26.757812 41.171875 C 26.703125 40.441406 26.53125 39.441406 26.738281 38.683594 C 27.523438 38.980469 28.28125 39.230469 29.015625 39.375 " fill-opacity="1" fill-rule="nonzero"/><path fill="#ffcca9" d="M 28.953125 22.695312 L 28.921875 22.699219 C 29.109375 24.046875 28.703125 25.304688 28.183594 26.367188 C 27.664062 27.441406 27.058594 28.367188 26.542969 29.234375 C 26.019531 30.101562 25.578125 30.898438 25.273438 31.667969 C 25.113281 32.058594 25.019531 32.417969 24.917969 32.75 C 24.902344 32.808594 24.890625 32.855469 24.871094 32.910156 C 24.753906 32.433594 24.585938 31.953125 24.363281 31.488281 C 23.945312 30.609375 23.40625 29.765625 22.84375 28.898438 C 22.28125 28.03125 21.6875 27.140625 21.199219 26.160156 C 20.964844 25.667969 20.753906 25.152344 20.609375 24.621094 C 20.476562 24.082031 20.414062 23.527344 20.445312 22.957031 L 20.417969 22.957031 C 20.730469 22.503906 20.96875 21.992188 21.125 21.40625 C 22.253906 22.566406 23.871094 23.367188 25.441406 23.019531 C 26.578125 22.769531 27.464844 21.636719 28.230469 20.851562 C 28.253906 20.820312 28.277344 20.792969 28.300781 20.765625 C 28.421875 21.445312 28.566406 22.125 28.953125 22.695312 " fill-opacity="1" fill-rule="nonzero"/><path fill="#ffcca9" d="M 25.742188 17 C 25.765625 16.902344 25.726562 16.839844 25.703125 16.804688 C 25.589844 16.660156 25.507812 16.640625 25.488281 16.65625 C 25.457031 16.675781 25.503906 16.765625 25.535156 16.882812 C 25.546875 16.898438 25.542969 16.910156 25.539062 16.917969 C 25.53125 16.910156 25.53125 16.914062 25.527344 16.910156 C 25.515625 16.914062 25.5 16.917969 25.488281 16.917969 C 25.445312 16.921875 25.394531 16.921875 25.335938 16.925781 C 24.910156 16.96875 24.597656 17.324219 24.144531 17.183594 C 23.871094 17.097656 23.644531 16.871094 23.734375 16.566406 C 23.964844 15.777344 24.285156 14.945312 24.1875 14.285156 C 24.167969 14.121094 24.109375 13.96875 24.035156 13.851562 C 23.953125 13.738281 23.859375 13.660156 23.769531 13.621094 C 23.675781 13.574219 23.613281 13.570312 23.566406 13.570312 C 23.523438 13.570312 23.492188 13.578125 23.488281 13.589844 C 23.480469 13.609375 23.496094 13.632812 23.53125 13.660156 C 23.566406 13.691406 23.625 13.730469 23.664062 13.78125 C 23.757812 13.882812 23.851562 14.050781 23.839844 14.3125 C 23.84375 14.570312 23.757812 14.894531 23.648438 15.25 C 23.585938 15.429688 23.527344 15.625 23.457031 15.816406 C 23.386719 16.003906 23.304688 16.21875 23.25 16.464844 C 23.226562 16.605469 23.203125 16.71875 23.230469 16.914062 L 23.257812 17.035156 L 23.285156 17.109375 C 23.308594 17.15625 23.332031 17.199219 23.359375 17.238281 C 23.386719 17.273438 23.417969 17.304688 23.449219 17.332031 C 23.578125 17.449219 23.714844 17.496094 23.828125 17.523438 C 23.941406 17.558594 24.046875 17.574219 24.144531 17.59375 L 24.210938 17.605469 C 24.210938 17.605469 24.238281 17.613281 24.246094 17.613281 L 24.253906 17.613281 L 24.269531 17.617188 L 24.308594 17.617188 C 24.355469 17.625 24.398438 17.628906 24.472656 17.628906 C 24.605469 17.632812 24.726562 17.59375 24.828125 17.542969 C 25.023438 17.433594 25.121094 17.339844 25.242188 17.273438 L 25.25 17.265625 C 25.25 17.261719 25.320312 17.238281 25.375 17.226562 C 25.433594 17.210938 25.496094 17.199219 25.554688 17.171875 C 25.613281 17.152344 25.707031 17.113281 25.742188 17 Z M 28.609375 14.226562 L 28.664062 14.375 C 28.652344 14.546875 28.644531 14.707031 28.628906 14.835938 C 28.460938 16.394531 28.820312 18.222656 28.066406 19.65625 C 27.140625 21.410156 25.078125 22.734375 23.210938 21.847656 C 21.808594 21.1875 20.605469 19.746094 20.410156 18.1875 C 20.328125 17.546875 20.488281 16.882812 20.339844 16.246094 C 20.109375 15.25 19.949219 14.300781 19.90625 13.289062 C 19.914062 13.269531 19.925781 13.253906 19.9375 13.234375 L 20.050781 13.039062 L 20.082031 12.992188 L 20.105469 12.953125 L 20.136719 12.90625 L 20.199219 12.816406 C 20.371094 12.578125 20.5625 12.339844 20.769531 12.105469 C 20.875 11.992188 20.984375 11.875 21.085938 11.785156 L 21.148438 11.734375 L 21.226562 11.699219 C 21.285156 11.675781 21.316406 11.640625 21.398438 11.625 C 21.667969 11.53125 22.003906 11.476562 22.351562 11.433594 C 22.714844 11.394531 23.089844 11.355469 23.472656 11.3125 C 23.664062 11.296875 23.890625 11.242188 24.078125 11.214844 C 24.265625 11.179688 24.460938 11.140625 24.671875 11.101562 C 25.078125 11.007812 25.515625 10.917969 25.949219 10.710938 C 26.109375 10.640625 26.265625 10.546875 26.421875 10.441406 C 26.492188 10.664062 26.578125 10.871094 26.675781 11.058594 C 26.894531 11.484375 27.152344 11.851562 27.394531 12.1875 C 27.644531 12.523438 27.875 12.835938 28.078125 13.136719 C 28.128906 13.222656 28.183594 13.3125 28.238281 13.398438 C 28.324219 13.578125 28.40625 13.753906 28.492188 13.925781 C 28.535156 14.003906 28.570312 14.121094 28.609375 14.226562 " fill-opacity="1" fill-rule="nonzero"/><path fill="#000000" d="M 25.703125 16.804688 C 25.726562 16.839844 25.765625 16.902344 25.742188 17 C 25.707031 17.113281 25.613281 17.152344 25.554688 17.171875 C 25.496094 17.199219 25.433594 17.210938 25.375 17.226562 C 25.320312 17.238281 25.25 17.261719 25.25 17.265625 L 25.242188 17.273438 C 25.121094 17.339844 25.023438 17.433594 24.828125 17.542969 C 24.726562 17.59375 24.605469 17.632812 24.472656 17.628906 C 24.398438 17.628906 24.355469 17.625 24.308594 17.617188 L 24.269531 17.617188 L 24.253906 17.613281 L 24.246094 17.613281 C 24.238281 17.613281 24.210938 17.605469 24.210938 17.605469 L 24.144531 17.59375 C 24.046875 17.574219 23.941406 17.558594 23.828125 17.523438 C 23.714844 17.496094 23.578125 17.449219 23.449219 17.332031 C 23.417969 17.304688 23.386719 17.273438 23.359375 17.238281 C 23.332031 17.199219 23.308594 17.15625 23.285156 17.109375 L 23.257812 17.035156 L 23.230469 16.914062 C 23.203125 16.71875 23.226562 16.605469 23.25 16.464844 C 23.304688 16.21875 23.386719 16.003906 23.457031 15.816406 C 23.527344 15.625 23.585938 15.429688 23.648438 15.25 C 23.757812 14.894531 23.84375 14.570312 23.839844 14.3125 C 23.851562 14.050781 23.757812 13.882812 23.664062 13.78125 C 23.625 13.730469 23.566406 13.691406 23.53125 13.660156 C 23.496094 13.632812 23.480469 13.609375 23.488281 13.589844 C 23.492188 13.578125 23.523438 13.570312 23.566406 13.570312 C 23.613281 13.570312 23.675781 13.574219 23.769531 13.621094 C 23.859375 13.660156 23.953125 13.738281 24.035156 13.851562 C 24.109375 13.96875 24.167969 14.121094 24.1875 14.285156 C 24.285156 14.945312 23.964844 15.777344 23.734375 16.566406 C 23.644531 16.871094 23.871094 17.097656 24.144531 17.183594 C 24.597656 17.324219 24.910156 16.96875 25.335938 16.925781 C 25.394531 16.921875 25.445312 16.921875 25.488281 16.917969 C 25.5 16.917969 25.515625 16.914062 25.527344 16.910156 C 25.53125 16.914062 25.53125 16.910156 25.539062 16.917969 C 25.542969 16.910156 25.546875 16.898438 25.535156 16.882812 C 25.503906 16.765625 25.457031 16.675781 25.488281 16.65625 C 25.507812 16.640625 25.589844 16.660156 25.703125 16.804688 " fill-opacity="1" fill-rule="nonzero"/><path fill="#51362d" d="M 25.867188 9.753906 C 25.777344 9.8125 25.6875 9.863281 25.589844 9.90625 C 25.253906 10.070312 24.871094 10.15625 24.492188 10.238281 C 24.304688 10.277344 24.109375 10.316406 23.90625 10.351562 C 23.707031 10.386719 23.550781 10.425781 23.359375 10.445312 C 22.980469 10.488281 22.605469 10.535156 22.242188 10.578125 C 22.054688 10.605469 21.871094 10.625 21.679688 10.667969 C 21.496094 10.699219 21.300781 10.757812 21.109375 10.820312 C 21.019531 10.84375 20.90625 10.910156 20.8125 10.960938 L 20.660156 11.042969 C 20.617188 11.078125 20.5625 11.117188 20.527344 11.152344 C 20.378906 11.289062 20.265625 11.414062 20.148438 11.546875 C 19.945312 11.777344 19.765625 12.007812 19.601562 12.246094 C 19.53125 12.171875 19.433594 12.121094 19.300781 12.121094 C 19.253906 12.121094 19.207031 12.117188 19.15625 12.113281 C 19.15625 12.109375 19.152344 12.101562 19.148438 12.089844 C 19.066406 11.9375 19.035156 11.800781 18.984375 11.664062 C 18.832031 11.109375 18.90625 10.496094 18.84375 9.898438 C 18.839844 9.847656 18.835938 9.84375 18.832031 9.832031 L 18.828125 9.804688 L 18.816406 9.746094 C 18.84375 9.734375 18.882812 9.71875 18.921875 9.703125 C 19.121094 9.714844 19.316406 9.726562 19.507812 9.734375 C 21.121094 9.804688 22.738281 9.769531 24.355469 9.769531 C 24.859375 9.769531 25.363281 9.765625 25.867188 9.753906 " fill-opacity="1" fill-rule="nonzero"/><path fill="#754c24" d="M 23.207031 41.007812 C 23.238281 40.050781 23.59375 38.980469 23.335938 38.035156 C 23.128906 37.273438 22.523438 37.207031 21.808594 37.21875 C 19.84375 37.253906 17.878906 37.195312 15.917969 37.296875 C 15.875 37.296875 15.847656 37.308594 15.816406 37.320312 C 15.621094 37.351562 15.457031 37.53125 15.550781 37.734375 C 15.546875 37.746094 15.539062 37.757812 15.539062 37.773438 C 15.523438 39.65625 15.097656 42.273438 16.507812 43.785156 C 17.753906 45.121094 21.242188 44.664062 22.523438 43.636719 C 23.246094 43.054688 23.179688 41.820312 23.207031 41.007812 Z M 24.230469 37.023438 C 24.242188 37.066406 24.253906 37.109375 24.265625 37.148438 C 24.257812 37.597656 24.261719 38.03125 24.273438 38.445312 C 24.25 38.878906 24.222656 39.316406 24.214844 39.761719 C 24.210938 40.441406 24.210938 41.132812 24.207031 41.84375 C 24.210938 42.546875 24.214844 43.273438 24.222656 44.015625 C 24.214844 44.542969 24.210938 45.082031 24.199219 45.625 C 22.519531 45.582031 20.835938 45.53125 19.15625 45.488281 C 17.574219 45.449219 16.019531 45.15625 14.4375 45.171875 C 14.484375 43.867188 14.578125 42.648438 14.621094 41.511719 C 14.683594 40.136719 14.679688 38.875 14.578125 37.738281 C 14.539062 37.453125 14.507812 37.175781 14.472656 36.90625 C 14.4375 36.636719 14.398438 36.398438 14.363281 36.15625 C 14.277344 35.675781 14.25 35.210938 14.195312 34.78125 C 14.109375 33.910156 14.046875 33.140625 13.925781 32.46875 C 13.867188 32.136719 13.820312 31.824219 13.738281 31.546875 C 13.65625 31.269531 13.605469 31.011719 13.511719 30.789062 C 13.421875 30.5625 13.339844 30.363281 13.265625 30.183594 C 13.226562 30.097656 13.195312 30.011719 13.15625 29.9375 C 13.113281 29.859375 13.070312 29.792969 13.03125 29.730469 C 12.71875 29.21875 12.558594 29.019531 12.507812 29.050781 C 12.453125 29.082031 12.515625 29.335938 12.71875 29.871094 C 12.746094 29.9375 12.773438 30.007812 12.804688 30.085938 C 12.828125 30.160156 12.847656 30.246094 12.871094 30.339844 C 12.925781 30.515625 12.980469 30.710938 13.042969 30.929688 C 13.109375 31.148438 13.136719 31.398438 13.191406 31.667969 C 13.253906 31.929688 13.277344 32.230469 13.3125 32.554688 C 13.359375 32.941406 13.386719 33.378906 13.414062 33.851562 C 13.324219 33.628906 13.226562 33.398438 13.117188 33.160156 C 12.539062 31.824219 11.671875 30.300781 10.683594 28.488281 C 10.980469 28.226562 11.316406 27.988281 11.71875 27.777344 C 13.210938 26.984375 15.105469 26.421875 16.824219 25.648438 C 17.125 26.472656 17.496094 27.269531 17.898438 28.046875 C 17.878906 28.351562 17.867188 28.652344 17.859375 28.945312 C 17.847656 29.398438 17.855469 29.835938 17.859375 30.261719 C 17.867188 30.597656 17.875 30.929688 17.882812 31.253906 L 17.890625 31.554688 C 17.894531 31.597656 17.886719 31.664062 17.902344 31.691406 L 18.042969 31.644531 C 18.226562 31.582031 18.414062 31.515625 18.597656 31.453125 L 18.878906 31.359375 L 18.9375 31.335938 C 20.207031 33.640625 21.378906 36.117188 24.097656 36.566406 C 24.148438 36.726562 24.191406 36.875 24.230469 37.023438 " fill-opacity="1" fill-rule="nonzero"/><path fill="#000000" d="M 18.535156 43.816406 C 18.707031 42.421875 18.433594 41.015625 18.363281 39.621094 C 17.539062 39.453125 16.824219 39.125 16.171875 38.484375 C 16.117188 39.832031 16 41.3125 16.492188 42.535156 C 16.855469 43.441406 17.664062 43.746094 18.535156 43.816406 Z M 20.457031 43.769531 C 20.464844 42.441406 20.523438 41.113281 20.371094 39.789062 C 20.292969 39.789062 20.210938 39.785156 20.128906 39.785156 C 19.742188 39.773438 19.375 39.753906 19.027344 39.71875 C 19.105469 41.097656 19.328125 42.464844 19.1875 43.839844 C 19.234375 43.839844 19.28125 43.839844 19.328125 43.839844 C 19.640625 43.828125 20.042969 43.816406 20.457031 43.769531 Z M 22.355469 38.015625 C 22.355469 37.996094 22.367188 37.980469 22.367188 37.960938 C 22.300781 37.90625 22.222656 37.875 22.132812 37.875 C 20.269531 37.910156 18.40625 37.871094 16.542969 37.933594 C 17.371094 38.820312 18.332031 39.074219 19.636719 39.109375 C 20.5625 39.136719 22.316406 39.375 22.355469 38.015625 Z M 22.402344 42.578125 C 22.5 42.15625 22.816406 40.242188 22.714844 38.992188 C 22.355469 39.492188 21.714844 39.691406 21.023438 39.761719 C 21.179688 41.054688 21.128906 42.351562 21.117188 43.652344 C 21.730469 43.488281 22.261719 43.179688 22.402344 42.578125 Z M 23.335938 38.035156 C 23.59375 38.980469 23.238281 40.050781 23.207031 41.007812 C 23.179688 41.820312 23.246094 43.054688 22.523438 43.636719 C 21.242188 44.664062 17.753906 45.121094 16.507812 43.785156 C 15.097656 42.273438 15.523438 39.65625 15.539062 37.773438 C 15.539062 37.757812 15.546875 37.746094 15.550781 37.734375 C 15.457031 37.53125 15.621094 37.351562 15.816406 37.320312 C 15.847656 37.308594 15.875 37.296875 15.917969 37.296875 C 17.878906 37.195312 19.84375 37.253906 21.808594 37.21875 C 22.523438 37.207031 23.128906 37.273438 23.335938 38.035156 " fill-opacity="1" fill-rule="nonzero"/><path fill="#603813" d="M 22.714844 38.992188 C 22.816406 40.242188 22.5 42.15625 22.402344 42.578125 C 22.261719 43.179688 21.730469 43.488281 21.117188 43.652344 C 21.128906 42.351562 21.179688 41.054688 21.023438 39.761719 C 21.714844 39.691406 22.355469 39.492188 22.714844 38.992188 " fill-opacity="1" fill-rule="nonzero"/><path fill="#603813" d="M 22.367188 37.960938 C 22.367188 37.980469 22.355469 37.996094 22.355469 38.015625 C 22.316406 39.375 20.5625 39.136719 19.636719 39.109375 C 18.332031 39.074219 17.371094 38.820312 16.542969 37.933594 C 18.40625 37.871094 20.269531 37.910156 22.132812 37.875 C 22.222656 37.875 22.300781 37.90625 22.367188 37.960938 " fill-opacity="1" fill-rule="nonzero"/><path fill="#603813" d="M 20.371094 39.789062 C 20.523438 41.113281 20.464844 42.441406 20.457031 43.769531 C 20.042969 43.816406 19.640625 43.828125 19.328125 43.839844 C 19.28125 43.839844 19.234375 43.839844 19.1875 43.839844 C 19.328125 42.464844 19.105469 41.097656 19.027344 39.71875 C 19.375 39.753906 19.742188 39.773438 20.128906 39.785156 C 20.210938 39.785156 20.292969 39.789062 20.371094 39.789062 " fill-opacity="1" fill-rule="nonzero"/><path fill="#c9b609" d="M 20.027344 6.242188 C 20.027344 6.441406 20.109375 6.761719 20.105469 7.1875 C 19.890625 7.210938 19.675781 7.242188 19.457031 7.269531 C 19.347656 7.289062 19.234375 7.308594 19.121094 7.324219 C 19.117188 7.109375 19.082031 6.933594 19.058594 6.796875 C 19.035156 6.660156 19.015625 6.554688 18.996094 6.464844 C 19.332031 6.359375 19.675781 6.28125 20.027344 6.226562 C 20.027344 6.230469 20.027344 6.234375 20.027344 6.242188 " fill-opacity="1" fill-rule="nonzero"/><path fill="#ffcca9" d="M 19.089844 13.953125 C 19.199219 14.804688 19.386719 15.644531 19.472656 16.488281 C 19.179688 16.355469 18.925781 16.210938 18.808594 15.824219 C 18.695312 15.433594 18.6875 14.996094 18.667969 14.589844 C 18.660156 14.300781 18.664062 14.011719 18.683594 13.722656 C 18.699219 13.539062 18.707031 13.304688 18.800781 13.214844 C 18.894531 13.441406 18.992188 13.671875 19.089844 13.953125 " fill-opacity="1" fill-rule="nonzero"/><path fill="#c69c6d" d="M 18.660156 6.84375 C 18.664062 7.007812 18.683594 7.199219 18.679688 7.402344 C 18.476562 7.441406 18.273438 7.476562 18.066406 7.527344 C 17.929688 7.558594 17.789062 7.59375 17.644531 7.625 C 17.667969 7.410156 17.707031 7.199219 17.765625 6.992188 C 17.765625 6.992188 17.765625 6.992188 17.769531 6.992188 C 18.054688 6.828125 18.351562 6.695312 18.65625 6.582031 C 18.652344 6.660156 18.652344 6.746094 18.660156 6.84375 " fill-opacity="1" fill-rule="nonzero"/><path fill="#603813" d="M 18.363281 39.621094 C 18.433594 41.015625 18.707031 42.421875 18.535156 43.816406 C 17.664062 43.746094 16.855469 43.441406 16.492188 42.535156 C 16 41.3125 16.117188 39.832031 16.171875 38.484375 C 16.824219 39.125 17.539062 39.453125 18.363281 39.621094 " fill-opacity="1" fill-rule="nonzero"/><path fill="#754c24" d="M 18.269531 11.847656 C 18.285156 11.902344 18.300781 11.957031 18.320312 12.015625 C 17.859375 11.929688 17.402344 11.804688 16.964844 11.679688 C 16.195312 11.464844 13.636719 10.496094 15.625 9.894531 C 16.414062 9.65625 17.289062 9.640625 18.148438 9.667969 C 18.160156 9.765625 18.167969 9.855469 18.179688 9.953125 C 18.195312 10.207031 18.179688 10.480469 18.175781 10.800781 C 18.171875 10.878906 18.171875 10.960938 18.167969 11.039062 C 18.175781 11.125 18.179688 11.214844 18.183594 11.304688 C 18.195312 11.484375 18.203125 11.664062 18.269531 11.847656 " fill-opacity="1" fill-rule="nonzero"/></svg>